<svg width="41" height="41" viewBox="0 0 41 41" fill="none" xmlns="http://www.w3.org/2000/svg">
<g clip-path="url(#clip0_214_10907)">
<path d="M8.24835 25.3593L14.3296 14.8234L13.9796 14.2172C13.4564 13.3394 13.1181 12.364 12.9855 11.3508C12.8528 10.3376 12.9286 9.30797 13.2082 8.32512C13.4878 7.34226 13.9653 6.42691 14.6114 5.63523C15.2574 4.84355 16.0585 4.19224 16.9653 3.72128C17.8722 3.25032 18.8657 2.96963 19.8849 2.89645C20.9041 2.82328 21.9276 2.95915 22.8924 3.29572C23.8572 3.6323 24.7431 4.16249 25.4956 4.85375C26.2482 5.54501 26.8515 6.38277 27.2687 7.3156C27.3996 7.60041 27.4211 7.92343 27.3292 8.22311C27.2373 8.52279 27.0383 8.77818 26.7702 8.9406C26.6178 9.02909 26.4484 9.08436 26.2732 9.10277C26.0979 9.12119 25.9207 9.10233 25.7532 9.04744C25.5858 8.99255 25.4318 8.90287 25.3014 8.78429C25.1711 8.6657 25.0672 8.52089 24.9968 8.35935C24.7209 7.73584 24.3204 7.17533 23.82 6.7123C23.3195 6.24926 22.7296 5.89348 22.0865 5.66682C21.4435 5.44016 20.7609 5.3474 20.0807 5.39427C19.4005 5.44113 18.7371 5.62661 18.1312 5.93932C17.5253 6.25202 16.9898 6.68534 16.5575 7.21264C16.1253 7.73993 15.8055 8.35006 15.6177 9.00551C15.4299 9.66096 15.3782 10.3479 15.4657 11.0241C15.5532 11.7003 15.7781 12.3514 16.1265 12.9375C16.1315 12.9437 16.1357 12.9505 16.139 12.9578L18.2999 16.6984C18.4096 16.8884 18.4674 17.104 18.4674 17.3234C18.4674 17.5428 18.4096 17.7584 18.2999 17.9484L12.578 27.8593C12.2422 28.4248 11.697 28.8351 11.0606 29.0014C10.4243 29.1677 9.74809 29.0765 9.17852 28.7476C8.60895 28.4188 8.19192 27.8787 8.01781 27.2445C7.8437 26.6102 7.92653 25.9329 8.24835 25.3593ZM30.2796 19.1093H28.3515L22.578 9.10935C22.2422 8.54388 21.697 8.13355 21.0606 7.96727C20.4243 7.801 19.7481 7.89218 19.1785 8.22105C18.609 8.54993 18.1919 9.09 18.0178 9.72423C17.8437 10.3585 17.9265 11.0358 18.2483 11.6093L23.6608 20.9843C23.7704 21.1742 23.928 21.3319 24.1178 21.4416C24.3076 21.5513 24.5229 21.6091 24.7421 21.6093H30.3093C33.1046 21.6093 35.4577 23.8968 35.4124 26.6922C35.3909 27.9955 34.8612 29.2389 33.9363 30.1574C33.0114 31.0759 31.7643 31.5969 30.4608 31.6093C30.1415 31.6055 29.8321 31.7206 29.593 31.9323C29.3538 32.144 29.202 32.4372 29.1671 32.7547C29.1526 32.9274 29.1741 33.1013 29.2304 33.2652C29.2867 33.4292 29.3765 33.5796 29.494 33.707C29.6116 33.8344 29.7544 33.936 29.9133 34.0052C30.0722 34.0745 30.2438 34.11 30.4171 34.1093C31.4141 34.1085 32.4009 33.9091 33.3199 33.5227C34.239 33.1364 35.0719 32.5709 35.7701 31.8592C36.4682 31.1475 37.0176 30.3039 37.3863 29.3776C37.7549 28.4513 37.9354 27.4608 37.9171 26.464C37.8327 22.3578 34.3937 19.1093 30.2858 19.1093H30.2796ZM32.9124 26.489C32.8499 25.1437 31.6905 24.1093 30.3452 24.1093H18.3515C18.132 24.1093 17.9164 24.167 17.7263 24.2767C17.5362 24.3865 17.3784 24.5443 17.2687 24.7343L14.7437 29.1093C14.4028 29.697 13.9459 30.2091 13.4006 30.6143C12.8553 31.0195 12.2331 31.3093 11.5721 31.4661C10.9111 31.6229 10.225 31.6433 9.55584 31.5261C8.88667 31.4089 8.24839 31.1565 7.67998 30.7845C7.11156 30.4124 6.62493 29.9284 6.24979 29.362C5.87465 28.7956 5.61886 28.1587 5.49805 27.4902C5.37723 26.8217 5.39393 26.1355 5.5471 25.4737C5.70028 24.8118 5.98673 24.1881 6.38897 23.6406C6.58326 23.3876 6.67619 23.0713 6.64961 22.7534C6.62302 22.4356 6.47883 22.139 6.24522 21.9218C6.11607 21.8068 5.96444 21.7197 5.79993 21.6663C5.63542 21.6128 5.4616 21.5941 5.28947 21.6113C5.11734 21.6285 4.95066 21.6812 4.79996 21.7661C4.64926 21.851 4.51782 21.9663 4.41397 22.1047C3.44977 23.3823 2.9232 24.9368 2.91241 26.5375C2.89757 28.1937 3.4314 29.8083 4.4306 31.1292C5.4298 32.4502 6.83816 33.4032 8.43593 33.8396C10.0337 34.2761 11.731 34.1713 13.263 33.5417C14.7949 32.9121 16.0754 31.7931 16.9046 30.3593L17.6265 29.1093H30.4124C30.7511 29.1097 31.0863 29.0413 31.3977 28.9082C31.7092 28.7751 31.9903 28.5801 32.2241 28.3351C32.4579 28.0901 32.6395 27.8001 32.7578 27.4827C32.8761 27.1654 32.9287 26.8273 32.9124 26.489Z" fill="white"/>
</g>
<defs>
<clipPath id="clip0_214_10907">
<rect width="40" height="40" fill="white" transform="translate(0.412109 0.359619)"/>
</clipPath>
</defs>
</svg>
