<svg width="1920" height="296" viewBox="0 0 1920 296" fill="none" xmlns="http://www.w3.org/2000/svg">
<g opacity="0.04">
<g style="mix-blend-mode:screen">
<path d="M29.8456 119.472C30.3408 119.466 30.8223 119.27 31.2241 118.911C31.626 118.552 31.9287 118.048 32.0906 117.468H77.1258L96.8371 93.2727H465.986L616.852 280.344H777.124L892.069 137.82H1083.34L1195.33 276.669H1422.3L1484.75 199.295H1719.18L1738.13 175.769H1838.37L1852.74 157.95C1853.18 158.222 1853.68 158.314 1854.17 158.214C1854.65 158.115 1855.1 157.827 1855.45 157.393C1855.77 157.008 1855.99 156.524 1856.09 155.994C1856.2 155.463 1856.18 154.907 1856.05 154.385C1855.92 153.864 1855.67 153.398 1855.34 153.038C1855.01 152.678 1854.61 152.438 1854.17 152.344C1853.74 152.25 1853.29 152.306 1852.88 152.505C1852.47 152.705 1852.11 153.041 1851.85 153.476C1851.58 153.911 1851.42 154.429 1851.37 154.972C1851.33 155.516 1851.4 156.064 1851.59 156.558L1837.69 173.764H1737.45L1718.51 197.291H1484.01L1421.62 274.608H1195.98L1084 135.76H891.328L776.45 278.228H617.525L466.659 91.1289H96.2309L76.542 115.546H32.2253C32.0634 114.966 31.7607 114.462 31.3588 114.103C30.957 113.744 30.4755 113.548 29.9803 113.542C29.3432 113.542 28.7322 113.856 28.2817 114.414C27.8312 114.973 27.5781 115.731 27.5781 116.521C27.5829 117.278 27.8199 118.005 28.2411 118.553C28.6623 119.101 29.236 119.43 29.8456 119.472Z" fill="url(#paint0_radial_2003_5480)"/>
<path d="M1828.44 281.15C1828.75 281.537 1829.14 281.812 1829.57 281.943C1829.99 282.074 1830.44 282.057 1830.86 281.893C1831.28 281.729 1831.66 281.425 1831.95 281.014C1832.24 280.603 1832.43 280.101 1832.51 279.563C1832.59 279.025 1832.54 278.471 1832.38 277.962C1832.22 277.454 1831.95 277.01 1831.6 276.679C1831.25 276.348 1830.83 276.144 1830.39 276.088C1829.95 276.032 1829.51 276.126 1829.11 276.361L1806.66 248.379H1638.46L1623.8 230.226H1495.01L1432.64 307.655H1184.97L1072.99 168.751H902.366L787.444 311.191H606.495L455.652 124.12H221.855C221.667 123.449 221.293 122.882 220.8 122.521C220.307 122.159 219.726 122.025 219.161 122.144C218.596 122.262 218.083 122.625 217.713 123.168C217.344 123.71 217.141 124.398 217.141 125.109C217.141 125.819 217.344 126.507 217.713 127.049C218.083 127.592 218.596 127.955 219.161 128.073C219.726 128.192 220.307 128.058 220.8 127.697C221.293 127.335 221.667 126.768 221.855 126.097H454.978L605.844 313.196H788.117L902.995 170.728H1072.31L1184.3 309.604H1433.31L1495.68 232.203H1623.15L1637.79 250.384H1805.92L1827.99 277.753C1827.77 278.307 1827.7 278.931 1827.78 279.54C1827.86 280.148 1828.09 280.711 1828.44 281.15Z" fill="url(#paint1_radial_2003_5480)"/>
<path d="M118.186 178.636L133.901 159.146H443.984L594.827 346.189H799.124L914.024 203.721H1061.32L1173.3 342.598H1444.34L1506.71 265.252H1608.86L1630.9 292.566H1724.97L1755.84 330.848H1859.11L1879.54 305.512C1879.98 305.729 1880.45 305.783 1880.91 305.67C1881.37 305.556 1881.79 305.279 1882.12 304.872C1882.57 304.304 1882.83 303.539 1882.83 302.742C1882.83 301.945 1882.57 301.18 1882.12 300.612C1881.72 300.117 1881.19 299.813 1880.63 299.755C1880.06 299.697 1879.5 299.888 1879.04 300.294C1878.58 300.7 1878.25 301.296 1878.1 301.975C1877.96 302.655 1878.02 303.375 1878.26 304.009L1858.28 328.788H1756.4L1725.53 290.477H1631.56L1609.51 263.192H1506.04L1443.65 340.51H1173.95L1061.97 201.689H913.351L798.473 344.129H595.5L444.635 157.086H133.25L117.535 176.575H14.6455L4.58781 164.102C4.80557 163.548 4.87933 162.924 4.79891 162.315C4.71849 161.707 4.48786 161.144 4.13882 160.705C3.68099 160.146 3.06407 159.832 2.42137 159.832C1.77866 159.832 1.16175 160.146 0.703925 160.705C0.25285 161.273 0 162.038 0 162.835C0 163.632 0.25285 164.397 0.703925 164.965C1.05789 165.398 1.51142 165.684 2.00198 165.784C2.49255 165.884 2.99598 165.792 3.44286 165.522L13.9945 178.58L118.186 178.636Z" fill="url(#paint2_radial_2003_5480)"/>
<path d="M1919.31 332.906C1918.91 332.402 1918.38 332.089 1917.81 332.023C1917.25 331.958 1916.68 332.144 1916.22 332.548C1915.75 332.953 1915.41 333.549 1915.27 334.232C1915.12 334.914 1915.18 335.638 1915.42 336.275L1902.88 351.866H1726.73L1700.1 318.79H1623.01L1604.76 296.154H1517.05L1454.68 373.527H1162.96L1050.98 234.651H924.36L809.482 377.258H584.509L433.643 190.02H320.898C320.707 189.351 320.332 188.788 319.839 188.429C319.346 188.07 318.766 187.939 318.202 188.059C317.638 188.179 317.127 188.542 316.758 189.084C316.39 189.627 316.188 190.313 316.188 191.023C316.188 191.732 316.39 192.418 316.758 192.961C317.127 193.503 317.638 193.866 318.202 193.986C318.766 194.106 319.346 193.975 319.839 193.616C320.332 193.257 320.707 192.694 320.898 192.025H432.97L583.835 379.124H810.156L925.033 236.656H1050.31L1162.29 375.504H1455.35L1517.72 298.187H1604.09L1622.36 320.822H1699.45L1726.06 353.843H1903.55L1916.57 337.695C1917.08 337.997 1917.66 338.067 1918.21 337.89C1918.76 337.714 1919.24 337.303 1919.56 336.73C1919.89 336.158 1920.05 335.46 1920 334.76C1919.95 334.06 1919.71 333.404 1919.31 332.906Z" fill="url(#paint3_radial_2003_5480)"/>
<path d="M421.958 224.966L572.801 412.064H821.146L936.023 269.596H1039.29L1151.28 408.501H1466.34L1528.71 331.127H1594.53L1607.46 347.164H1678.79L1706.29 381.299H1792.05C1792.2 381.81 1792.46 382.26 1792.81 382.599C1793.15 382.939 1793.56 383.155 1794 383.224C1794.44 383.293 1794.88 383.212 1795.28 382.991C1795.68 382.769 1796.03 382.416 1796.28 381.968C1796.53 381.52 1796.67 380.996 1796.7 380.452C1796.73 379.908 1796.63 379.366 1796.43 378.883C1796.23 378.401 1795.92 377.997 1795.54 377.716C1795.17 377.435 1794.73 377.288 1794.29 377.29C1793.8 377.292 1793.32 377.486 1792.91 377.846C1792.51 378.205 1792.21 378.712 1792.05 379.294H1707.01L1679.48 345.16H1608.23L1595.3 329.123H1528.06L1465.67 406.496H1151.93L1039.97 267.592H935.372L820.472 410.06H573.52L422.654 222.961H182.819L150.356 263.109H83.1173L69.1533 280.455C68.7064 280.185 68.203 280.093 67.7124 280.193C67.2219 280.293 66.7683 280.579 66.4144 281.012C66.189 281.289 66.0101 281.618 65.8881 281.981C65.766 282.345 65.7031 282.734 65.7031 283.128C65.7031 283.521 65.766 283.911 65.8881 284.274C66.0101 284.637 66.189 284.967 66.4144 285.244C66.6377 285.523 66.9035 285.745 67.1963 285.896C67.4892 286.048 67.8033 286.126 68.1206 286.126C68.4379 286.126 68.752 286.048 69.0448 285.896C69.3377 285.745 69.6035 285.523 69.8268 285.244C70.1758 284.805 70.4065 284.242 70.4869 283.634C70.5673 283.026 70.4936 282.401 70.2758 281.847L83.7459 265.142H151.097L183.47 224.966H421.958Z" fill="url(#paint4_radial_2003_5480)"/>
<path d="M1898.49 388.648C1898.14 389.089 1897.91 389.649 1897.83 390.256C1897.74 390.863 1897.81 391.487 1898.02 392.045L1893.12 398.087H1816.43L1807.9 408.667H1669.36L1635.69 366.904H1535.13L1476.76 439.293H1140.93L1029.01 300.584H946.375L831.452 443.052H562.476L411.633 255.953H259.533L221.098 303.619H173.661L156.958 324.361C156.517 324.07 156.011 323.969 155.519 324.075C155.027 324.181 154.577 324.488 154.241 324.946C153.929 325.331 153.707 325.815 153.601 326.345C153.496 326.876 153.51 327.432 153.642 327.953C153.774 328.475 154.019 328.941 154.35 329.301C154.682 329.661 155.087 329.901 155.521 329.995C155.955 330.089 156.401 330.033 156.811 329.833C157.222 329.634 157.579 329.298 157.846 328.863C158.113 328.428 158.278 327.91 158.323 327.367C158.368 326.823 158.292 326.275 158.103 325.781L174.379 305.596H221.772L260.206 257.93H410.937L561.802 445.001H832.17L947.048 302.533H1028.27L1140.25 441.409H1477.34L1535.71 369.02H1635.17L1668.84 410.783H1808.73L1817.24 400.203H1893.8L1899.16 393.577C1899.61 393.847 1900.11 393.938 1900.6 393.838C1901.09 393.739 1901.55 393.453 1901.9 393.02C1902.35 392.452 1902.6 391.687 1902.6 390.89C1902.6 390.093 1902.35 389.328 1901.9 388.76C1901.68 388.473 1901.42 388.242 1901.13 388.081C1900.84 387.92 1900.53 387.832 1900.21 387.822C1899.9 387.811 1899.58 387.879 1899.28 388.021C1898.99 388.163 1898.72 388.376 1898.49 388.648Z" fill="url(#paint5_radial_2003_5480)"/>
<path d="M130.133 17.3494L139.113 28.4862H237.76L263.285 60.1984H477.012L627.855 247.269H766.103L880.981 104.774H1094.26L1206.37 243.622H1411.35L1473.71 166.249H1590.45L1616.76 133.701H1701.69L1716.56 115.242C1717.01 115.501 1717.51 115.583 1718 115.479C1718.49 115.374 1718.94 115.088 1719.29 114.658C1719.64 114.091 1719.81 113.389 1719.78 112.68C1719.74 111.971 1719.5 111.3 1719.11 110.789C1718.71 110.278 1718.17 109.961 1717.6 109.894C1717.03 109.827 1716.46 110.016 1715.99 110.425C1715.65 110.866 1715.42 111.426 1715.33 112.033C1715.25 112.639 1715.31 113.264 1715.52 113.822L1701.13 131.697H1616.09L1589.78 164.3H1473.04L1410.67 241.673H1207.05L1095.02 102.769H880.33L765.43 245.293H628.483L477.618 58.1938H263.937L238.411 26.4538H139.809L131.278 15.8738C131.486 15.3243 131.552 14.7087 131.468 14.1109C131.384 13.513 131.153 12.9619 130.807 12.5327C130.354 11.9715 129.74 11.6562 129.1 11.6562C128.461 11.6562 127.847 11.9715 127.394 12.5327C126.942 13.0939 126.688 13.8551 126.688 14.6487C126.688 15.4424 126.942 16.2035 127.394 16.7647C127.749 17.1952 128.201 17.4816 128.69 17.5861C129.179 17.6905 129.683 17.608 130.133 17.3494Z" fill="url(#paint6_radial_2003_5480)"/>
<path d="M240.044 5.95813C240.539 5.95173 241.021 5.75569 241.423 5.39684C241.825 5.03799 242.127 4.53387 242.289 3.9535H321.83L340.576 27.2016H487.962L638.828 214.3H755.12L869.975 71.8325H1105.34L1217.3 210.681H1398.36L1398.81 211.182C1399.17 211.6 1399.46 211.544 1399.85 211.182L1400.05 210.932L1400.52 210.347L1401.89 208.704L1462.66 133.364H1578.53L1635.17 62.9509H1685.48C1685.62 63.5479 1685.92 64.0697 1686.32 64.433C1686.73 64.7963 1687.22 64.9802 1687.72 64.9555C1688.06 64.9958 1688.4 64.9484 1688.72 64.8163C1689.04 64.6842 1689.34 64.4704 1689.59 64.1886C1689.84 63.9067 1690.04 63.5631 1690.18 63.1797C1690.31 62.7964 1690.38 62.3817 1690.38 61.9625C1690.38 61.5432 1690.31 61.1286 1690.18 60.7453C1690.04 60.3619 1689.84 60.0183 1689.59 59.7364C1689.34 59.4546 1689.04 59.2407 1688.72 59.1087C1688.4 58.9766 1688.06 58.9292 1687.72 58.9695C1687.22 58.9447 1686.73 59.1287 1686.32 59.492C1685.92 59.8553 1685.62 60.3771 1685.48 60.9741H1634.59L1577.85 131.359H1461.99L1403.33 204.082L1399.62 208.704H1218L1106.02 69.8279H869.302L754.424 212.296H639.546L488.681 25.197H341.295L322.549 1.97671H242.289C242.141 1.46194 241.881 1.00771 241.539 0.663733C241.196 0.319759 240.784 0.0993099 240.347 0.0265262C239.91 -0.0462576 239.466 0.0314292 239.062 0.251079C238.658 0.470728 238.311 0.823875 238.059 1.27185C237.806 1.71982 237.658 2.24535 237.63 2.79091C237.602 3.33646 237.696 3.88099 237.901 4.36489C238.106 4.84879 238.414 5.2534 238.792 5.53442C239.17 5.81543 239.603 5.96202 240.044 5.95813Z" fill="url(#paint7_radial_2003_5480)"/>
</g>
<g style="mix-blend-mode:screen">
<path d="M220.066 145.921C221.254 145.921 222.412 145.497 223.38 144.709C224.348 143.92 225.077 142.806 225.466 141.522H249.451L263.098 125.902H518.519L623.338 245.874H735.821L815.585 154.524H947.431L1025.27 243.619H1184.14L1227.49 194.032H1390.48L1403.64 178.942H1473.31L1478.17 173.373C1479.4 174.034 1480.78 174.177 1482.09 173.779C1483.4 173.381 1484.54 172.466 1485.32 171.197C1486.1 169.927 1486.46 168.384 1486.33 166.841C1486.21 165.298 1485.62 163.853 1484.66 162.762C1483.7 161.671 1482.43 161.005 1481.08 160.88C1479.73 160.755 1478.39 161.18 1477.28 162.08C1476.18 162.979 1475.39 164.296 1475.06 165.797C1474.72 167.298 1474.86 168.887 1475.45 170.283L1471.77 174.487H1401.93L1388.77 189.577H1225.79L1182.47 239.164H1026.78L948.939 150.069H813.931L734.118 241.503H624.871L520.051 121.531H261.517L247.846 137.123H225.466C225.11 135.991 224.489 134.993 223.671 134.237C222.853 133.482 221.87 132.998 220.828 132.838C219.786 132.678 218.726 132.848 217.763 133.331C216.801 133.813 215.972 134.589 215.368 135.573C214.763 136.557 214.407 137.713 214.337 138.913C214.267 140.113 214.486 141.313 214.971 142.38C215.456 143.447 216.187 144.342 217.085 144.967C217.984 145.591 219.015 145.921 220.066 145.921Z" fill="url(#paint8_radial_2003_5480)"/>
<path d="M1459.94 244.929C1461.02 246.169 1462.48 246.868 1464.01 246.87C1465.54 246.873 1467.01 246.179 1468.1 244.943C1469.18 243.706 1469.79 242.027 1469.79 240.275C1469.8 238.523 1469.19 236.842 1468.11 235.602C1467.27 234.647 1466.19 234.015 1465.02 233.796C1463.85 233.576 1462.65 233.779 1461.59 234.377L1451.11 222.349H1334.34L1324.17 210.711H1233.49L1190.14 260.325H1019.18L941.335 171.231H821.701L741.864 262.581H617.364L512.423 142.665H357.322C356.868 141.197 355.976 139.96 354.803 139.173C353.63 138.385 352.252 138.097 350.911 138.361C349.571 138.624 348.355 139.421 347.478 140.611C346.602 141.801 346.121 143.308 346.121 144.864C346.121 146.421 346.602 147.927 347.478 149.117C348.355 150.307 349.571 151.105 350.911 151.368C352.252 151.631 353.63 151.343 354.803 150.556C355.976 149.768 356.868 148.531 357.322 147.064H510.842L615.662 267.035H743.445L823.258 175.658H939.778L1017.62 264.752H1191.77L1235.09 215.138H1322.67L1332.83 226.776H1449.6L1458.96 237.495C1458.44 238.698 1458.25 240.057 1458.42 241.388C1458.6 242.718 1459.13 243.954 1459.94 244.929Z" fill="url(#paint9_radial_2003_5480)"/>
<path d="M277.915 180.72L288.886 168.192H503.171L607.991 288.163H751.148L830.961 196.813H932.131L1009.97 285.908H1199.42L1242.77 236.321H1312.61L1327.94 253.834H1393.23L1414.68 278.391H1487.66L1496.68 268.061C1497.75 268.658 1498.95 268.861 1500.11 268.642C1501.28 268.422 1502.36 267.791 1503.2 266.836C1504.23 265.586 1504.79 263.929 1504.76 262.216C1504.74 260.502 1504.13 258.866 1503.08 257.655C1502.02 256.443 1500.59 255.75 1499.09 255.723C1497.59 255.696 1496.15 256.336 1495.05 257.509C1494.22 258.471 1493.67 259.706 1493.48 261.044C1493.28 262.381 1493.46 263.754 1493.98 264.971L1486.08 274.019H1416.21L1394.76 249.463H1329.47L1314.14 231.95H1241.17L1197.84 281.537H1011.43L933.591 192.442H829.306L749.494 283.792H609.572L504.752 163.82H287.305L276.334 176.349H205.984L204.962 175.18C205.551 173.776 205.688 172.178 205.347 170.67C205.006 169.162 204.21 167.84 203.099 166.939C201.989 166.038 200.636 165.616 199.279 165.747C197.923 165.879 196.651 166.555 195.689 167.657C194.726 168.758 194.135 170.214 194.021 171.766C193.906 173.319 194.275 174.867 195.062 176.138C195.849 177.409 197.003 178.321 198.321 178.711C199.639 179.101 201.035 178.945 202.262 178.27L204.402 180.72H277.915Z" fill="url(#paint10_radial_2003_5480)"/>
<path d="M1528.84 278.116C1528.31 277.5 1527.67 277.012 1526.97 276.679C1526.27 276.345 1525.52 276.174 1524.77 276.174C1524.01 276.174 1523.26 276.345 1522.56 276.679C1521.86 277.012 1521.23 277.5 1520.69 278.116C1519.86 279.077 1519.31 280.313 1519.11 281.651C1518.92 282.988 1519.1 284.361 1519.62 285.577L1516.87 288.723H1395.59L1377.1 267.536H1323.58L1310.88 253.03H1248.78L1205.46 302.617H1003.87L926.025 213.522H836.968L757.131 304.872H601.933L497.113 184.956H426.131C425.68 183.486 424.789 182.246 423.616 181.456C422.444 180.665 421.064 180.375 419.722 180.637C418.381 180.898 417.163 181.695 416.285 182.886C415.407 184.076 414.926 185.584 414.926 187.142C414.926 188.699 415.407 190.207 416.285 191.398C417.163 192.588 418.381 193.385 419.722 193.646C421.064 193.908 422.444 193.618 423.616 192.828C424.789 192.037 425.68 190.797 426.131 189.327H495.508L600.327 309.299H758.688L838.525 217.949H924.444L1002.29 307.044H1207.04L1250.36 257.54H1309.25L1321.95 272.046H1375.47L1393.96 293.234H1518.41L1522.27 288.807C1523.49 289.496 1524.89 289.663 1526.21 289.28C1527.53 288.897 1528.68 287.988 1529.47 286.716C1530.25 285.444 1530.62 283.894 1530.49 282.343C1530.37 280.792 1529.77 279.342 1528.79 278.255L1528.84 278.116Z" fill="url(#paint11_radial_2003_5480)"/>
<path d="M300.752 236.236L323.302 210.454H487.866L592.686 330.425H766.372L846.185 239.048H916.73L994.572 328.142H1214.62L1257.97 278.528H1302.59L1311.56 288.801H1361.11L1380.23 310.685H1432.51C1432.96 312.155 1433.85 313.395 1435.02 314.186C1436.2 314.976 1437.58 315.266 1438.92 315.004C1440.26 314.743 1441.48 313.946 1442.35 312.756C1443.23 311.565 1443.71 310.057 1443.71 308.5C1443.71 306.942 1443.23 305.434 1442.35 304.244C1441.48 303.053 1440.26 302.257 1438.92 301.995C1437.58 301.733 1436.2 302.023 1435.02 302.814C1433.85 303.604 1432.96 304.844 1432.51 306.314H1381.86L1362.74 284.402H1313.19L1304.21 274.24H1256.44L1213.09 323.743H996.202L918.359 234.649H844.604L764.766 326.026H594.267L489.447 206.055H321.599L299.049 231.864H252.466L247.917 237.043C246.684 236.368 245.283 236.214 243.961 236.608C242.639 237.001 241.481 237.917 240.692 239.193C239.903 240.47 239.534 242.024 239.65 243.582C239.765 245.14 240.359 246.601 241.325 247.706C242.291 248.812 243.567 249.491 244.928 249.623C246.289 249.756 247.647 249.333 248.762 248.43C249.878 247.527 250.678 246.202 251.022 244.688C251.365 243.175 251.231 241.572 250.641 240.161L254.047 236.236H300.752Z" fill="url(#paint12_radial_2003_5480)"/>
<path d="M1508.6 313.863C1507.55 315.059 1506.96 316.68 1506.95 318.374H1456.81L1450.88 325.139H1355.74L1332.36 298.411H1261.33L1220.63 344.879H988.566L910.724 255.785H852.342L772.432 347.19H586.632L481.812 227.219H375.022L348.264 257.845H315.375L308.929 265.223C307.699 264.54 306.298 264.376 304.974 264.761C303.649 265.146 302.486 266.055 301.69 267.328C300.895 268.6 300.519 270.153 300.628 271.713C300.737 273.272 301.325 274.737 302.287 275.848C303.249 276.959 304.523 277.645 305.885 277.784C307.246 277.923 308.607 277.506 309.725 276.607C310.844 275.708 311.649 274.385 311.997 272.872C312.346 271.36 312.215 269.755 311.629 268.342L316.981 262.216H349.893L376.652 231.59H480.279L585.099 351.562H774.013L853.85 260.323H909.264L987.107 349.418H1222.43L1263.06 302.949H1330.9L1354.28 329.705H1452.46L1458.39 322.912H1508.36C1508.36 323.051 1508.48 323.218 1508.6 323.33C1509.41 324.257 1510.43 324.89 1511.55 325.148C1512.67 325.407 1513.83 325.279 1514.89 324.781C1515.95 324.283 1516.85 323.437 1517.48 322.351C1518.12 321.265 1518.46 319.987 1518.46 318.68C1518.46 317.373 1518.12 316.095 1517.48 315.009C1516.85 313.923 1515.95 313.077 1514.89 312.579C1513.83 312.081 1512.67 311.953 1511.55 312.212C1510.43 312.47 1509.41 313.103 1508.6 314.03V313.863Z" fill="url(#paint13_radial_2003_5480)"/>
<path d="M290.293 83.2156L291.363 84.4407H359.865L377.622 104.765H526.01L630.829 224.737H728.011L807.945 133.359H955.068L1032.91 222.454H1176.43L1219.76 172.811H1300.91L1319.18 151.902H1378.21L1383.35 146C1384.57 146.674 1385.97 146.83 1387.29 146.44C1388.61 146.05 1389.76 145.138 1390.55 143.868C1391.33 142.597 1391.7 141.048 1391.59 139.496C1391.47 137.943 1390.88 136.487 1389.92 135.386C1388.96 134.284 1387.69 133.608 1386.33 133.477C1384.97 133.345 1383.62 133.767 1382.51 134.668C1381.4 135.569 1380.6 136.891 1380.26 138.399C1379.92 139.907 1380.06 141.505 1380.65 142.909L1376.61 147.531H1317.59L1299.33 168.44H1218.2L1174.83 218.055H1034.47L956.624 128.96H806.364L726.527 220.366H632.532L527.712 100.394H379.204L361.47 80.0694H293.017C293.526 78.8548 293.691 77.4892 293.49 76.1621C293.29 74.835 292.734 73.6122 291.898 72.6635C291.355 72.0529 290.713 71.5707 290.007 71.2444C289.301 70.9182 288.546 70.7542 287.784 70.762C287.023 70.7697 286.271 70.949 285.57 71.2896C284.869 71.6302 284.234 72.1254 283.701 72.747C283.167 73.3686 282.746 74.1043 282.461 74.9122C282.176 75.7201 282.033 76.5844 282.039 77.4557C282.046 78.3269 282.203 79.1882 282.5 79.9901C282.798 80.7921 283.231 81.5192 283.774 82.1298C284.628 83.062 285.714 83.6673 286.882 83.8618C288.05 84.0564 289.242 83.8305 290.293 83.2156Z" fill="url(#paint14_radial_2003_5480)"/>
<path d="M366.117 73.1395C367.303 73.1312 368.458 72.7043 369.424 71.917C370.391 71.1298 371.121 70.0205 371.517 68.7404H418.344L431.358 83.6359H533.77L638.589 203.607H720.47L800.307 112.258H962.779L1040.62 201.352H1166.39C1166.72 201.695 1167.15 201.884 1167.6 201.884C1168.05 201.884 1168.48 201.695 1168.82 201.352L1169.01 201.13L1169.3 200.795L1172.66 197.065H1172.54L1212.12 151.738H1292.61L1332.04 106.55H1358.51C1358.96 108.02 1359.85 109.26 1361.02 110.05C1362.2 110.841 1363.58 111.131 1364.92 110.869C1366.26 110.607 1367.48 109.811 1368.36 108.62C1369.23 107.43 1369.72 105.922 1369.72 104.364C1369.72 102.807 1369.23 101.299 1368.36 100.108C1367.48 98.9179 1366.26 98.1213 1364.92 97.8596C1363.58 97.5979 1362.2 97.8879 1361.02 98.6784C1359.85 99.4689 1358.96 100.709 1358.51 102.179H1330.46L1291.03 147.311H1210.54L1167.12 196.898H1042.1L964.263 107.803H798.702L718.889 199.208H640.171L535.351 79.3483H432.964L419.925 64.4527H371.517C371.161 63.321 370.54 62.3229 369.722 61.5673C368.904 60.8117 367.921 60.3275 366.879 60.1677C365.837 60.0078 364.777 60.1783 363.814 60.6606C362.851 61.1429 362.023 61.9186 361.418 62.9029C360.814 63.8873 360.458 65.0426 360.388 66.2429C360.318 67.4432 360.537 68.6425 361.022 69.7099C361.506 70.7774 362.238 71.6721 363.136 72.2965C364.035 72.9209 365.065 73.251 366.117 73.2508V73.1395Z" fill="url(#paint15_radial_2003_5480)"/>
</g>
</g>
<path d="M5.15 130.266H155.452C164.595 130.266 174.407 132.719 182.212 139.632C190.24 146.322 195.369 157.249 195.369 169.96V176.427C195.369 185.57 192.693 193.821 188.01 200.288C195.815 206.978 200.944 217.905 200.944 230.393V237.529C200.944 250.017 195.815 260.944 188.01 267.857C179.982 274.547 170.17 277 161.027 277H5.15V130.266ZM33.917 154.127V191.368H151.661C156.121 191.368 159.912 190.253 162.365 188.246C164.595 186.239 166.379 183.563 166.379 177.096V168.399C166.379 161.932 164.595 159.479 162.365 157.472C159.912 155.465 156.121 154.127 151.661 154.127H33.917ZM33.917 215.452V253.139H157.459C161.696 253.139 165.487 252.024 167.94 250.017C170.393 248.01 172.177 245.334 172.177 238.867L171.954 229.724C171.954 223.257 170.17 220.581 167.717 218.574C165.487 216.567 161.473 215.452 157.236 215.452H33.917ZM218.786 130.266H247.553V253.139H390.719V277H218.786V130.266ZM507.985 130.266H532.069L637.102 277H601.422L577.115 243.104H462.716L438.409 277H402.952L507.985 130.266ZM520.027 163.047L479.887 219.243H560.167L520.027 163.047ZM677.647 130.266H803.642C813.008 130.266 822.597 132.719 830.625 139.409C838.653 146.322 843.782 157.249 843.782 169.96L843.336 179.995H814.792V168.399C814.792 161.932 813.008 159.479 810.555 157.472C808.325 155.465 804.311 154.127 800.074 154.127H681.215C676.978 154.127 672.964 155.465 670.734 157.472C668.281 159.479 666.497 161.932 666.497 168.399V238.867C666.497 245.334 668.281 248.01 670.734 250.017C672.964 252.024 676.978 253.139 681.215 253.139H800.074C804.311 253.139 808.325 252.024 810.555 250.017C813.008 248.01 814.792 245.334 814.792 238.867V227.271H843.336L843.782 237.529C843.782 250.017 838.653 260.944 830.625 267.857C822.597 274.547 813.008 277 803.642 277H677.647C668.504 277 658.692 274.547 650.664 267.857C642.859 260.944 637.73 250.017 637.73 237.529V169.96C637.73 157.249 642.859 146.322 650.664 139.632C658.692 132.719 668.504 130.266 677.647 130.266ZM861.653 130.266H890.42V192.483H922.086L1019.76 130.266H1066.59L950.407 204.525L1063.91 277H1016.41L922.086 216.344H890.42V277H861.653V130.266ZM1076.16 277V130.266H1226.24C1235.38 130.266 1245.19 132.719 1253.22 139.632C1261.03 146.322 1266.16 157.249 1266.16 169.96V187.577C1266.16 198.727 1262.14 208.539 1255.9 215.452C1262.14 222.142 1266.16 231.954 1266.16 243.104V277.223H1237.17C1237.17 274.101 1237.17 241.766 1237.17 241.766C1237.17 235.076 1235.38 232.623 1233.15 230.616C1230.7 228.609 1226.91 227.271 1222.67 227.271H1104.93V277H1076.16ZM1104.93 154.127V203.41H1222.67C1226.91 203.41 1230.7 202.072 1233.15 200.065C1235.38 198.058 1237.17 195.605 1237.17 189.138V168.399C1237.17 161.932 1235.38 159.479 1233.15 157.472C1230.7 155.465 1226.91 154.127 1222.67 154.127H1104.93ZM1286.96 130.266H1473.17V154.127H1315.73V191.368H1463.58V215.452H1315.73V253.139H1473.17V277H1286.96V130.266ZM1606.77 277H1582.68L1477.65 130.266H1513.11L1594.72 244.219L1676.12 130.266H1711.8L1606.77 277ZM1751.92 130.266H1877.92C1887.28 130.266 1896.87 132.719 1904.9 139.632C1912.71 146.322 1918.06 157.249 1918.06 169.96V237.529C1918.06 250.017 1912.71 260.944 1904.9 267.857C1896.87 274.547 1887.28 277 1877.92 277H1751.92C1742.78 277 1732.97 274.547 1724.94 267.857C1717.13 260.944 1712.01 250.017 1712.01 237.529V169.96C1712.01 157.249 1717.13 146.322 1724.94 139.632C1732.97 132.719 1742.78 130.266 1751.92 130.266ZM1755.49 154.127C1751.25 154.127 1747.24 155.465 1745.01 157.472C1742.56 159.479 1740.77 161.932 1740.77 168.399V238.867C1740.77 245.334 1742.56 248.01 1745.01 250.017C1747.24 252.024 1751.25 253.139 1755.49 253.139H1874.35C1878.59 253.139 1882.6 252.024 1884.83 250.017C1887.28 248.01 1889.07 245.334 1889.07 238.867V168.399C1889.07 161.932 1887.28 159.479 1884.83 157.472C1882.6 155.465 1878.59 154.127 1874.35 154.127H1755.49Z" fill="url(#paint16_linear_2003_5480)"/>
<defs>
<radialGradient id="paint0_radial_2003_5480" cx="0" cy="0" r="1" gradientUnits="userSpaceOnUse" gradientTransform="translate(941.796 185.681) scale(648.789 804.609)">
<stop offset="0.24" stop-color="#8C1600"/>
<stop offset="0.7" stop-color="#560E00"/>
<stop offset="1" stop-color="#390900"/>
</radialGradient>
<radialGradient id="paint1_radial_2003_5480" cx="0" cy="0" r="1" gradientUnits="userSpaceOnUse" gradientTransform="translate(1024.88 217.642) scale(573.716 711.505)">
<stop offset="0.24" stop-color="#8C1600"/>
<stop offset="0.7" stop-color="#560E00"/>
<stop offset="1" stop-color="#390900"/>
</radialGradient>
<radialGradient id="paint2_radial_2003_5480" cx="0" cy="0" r="1" gradientUnits="userSpaceOnUse" gradientTransform="translate(941.458 251.61) scale(667.894 828.302)">
<stop offset="0.24" stop-color="#8C1600"/>
<stop offset="0.7" stop-color="#560E00"/>
<stop offset="1" stop-color="#390900"/>
</radialGradient>
<radialGradient id="paint3_radial_2003_5480" cx="0" cy="0" r="1" gradientUnits="userSpaceOnUse" gradientTransform="translate(1118.11 283.57) scale(569.629 706.437)">
<stop offset="0.24" stop-color="#8C1600"/>
<stop offset="0.7" stop-color="#560E00"/>
<stop offset="1" stop-color="#390900"/>
</radialGradient>
<radialGradient id="paint4_radial_2003_5480" cx="0" cy="0" r="1" gradientUnits="userSpaceOnUse" gradientTransform="translate(931.219 317.513) scale(614.372 761.927)">
<stop offset="0.24" stop-color="#8C1600"/>
<stop offset="0.7" stop-color="#560E00"/>
<stop offset="1" stop-color="#390900"/>
</radialGradient>
<radialGradient id="paint5_radial_2003_5480" cx="0" cy="0" r="1" gradientUnits="userSpaceOnUse" gradientTransform="translate(1028.07 350.505) scale(620.748 769.834)">
<stop offset="0.24" stop-color="#8C1600"/>
<stop offset="0.7" stop-color="#560E00"/>
<stop offset="1" stop-color="#390900"/>
</radialGradient>
<radialGradient id="paint6_radial_2003_5480" cx="0" cy="0" r="1" gradientUnits="userSpaceOnUse" gradientTransform="translate(923.344 129.469) scale(567.317 703.57)">
<stop offset="0.24" stop-color="#8C1600"/>
<stop offset="0.7" stop-color="#560E00"/>
<stop offset="1" stop-color="#390900"/>
</radialGradient>
<radialGradient id="paint7_radial_2003_5480" cx="0" cy="0" r="1" gradientUnits="userSpaceOnUse" gradientTransform="translate(963.93 107.136) scale(517.209 641.426)">
<stop offset="0.24" stop-color="#8C1600"/>
<stop offset="0.7" stop-color="#560E00"/>
<stop offset="1" stop-color="#390900"/>
</radialGradient>
<radialGradient id="paint8_radial_2003_5480" cx="0" cy="0" r="1" gradientUnits="userSpaceOnUse" gradientTransform="translate(850.249 183.703) scale(451.316 516.554)">
<stop offset="0.24" stop-color="#E02300"/>
<stop offset="0.5" stop-color="#A11900"/>
<stop offset="0.84" stop-color="#570E00"/>
<stop offset="1" stop-color="#390900"/>
</radialGradient>
<radialGradient id="paint9_radial_2003_5480" cx="0" cy="0" r="1" gradientUnits="userSpaceOnUse" gradientTransform="translate(907.984 202.637) scale(399.235 456.944)">
<stop offset="0.24" stop-color="#E02300"/>
<stop offset="0.5" stop-color="#A11900"/>
<stop offset="0.84" stop-color="#570E00"/>
<stop offset="1" stop-color="#390900"/>
</radialGradient>
<radialGradient id="paint10_radial_2003_5480" cx="0" cy="0" r="1" gradientUnits="userSpaceOnUse" gradientTransform="translate(849.4 225.992) scale(464.987 532.202)">
<stop offset="0.24" stop-color="#E02300"/>
<stop offset="0.5" stop-color="#A11900"/>
<stop offset="0.84" stop-color="#570E00"/>
<stop offset="1" stop-color="#390900"/>
</radialGradient>
<radialGradient id="paint11_radial_2003_5480" cx="0" cy="0" r="1" gradientUnits="userSpaceOnUse" gradientTransform="translate(972.755 244.928) scale(396.413 453.715)">
<stop offset="0.24" stop-color="#E02300"/>
<stop offset="0.5" stop-color="#A11900"/>
<stop offset="0.84" stop-color="#570E00"/>
<stop offset="1" stop-color="#390900"/>
</radialGradient>
<radialGradient id="paint12_radial_2003_5480" cx="0" cy="0" r="1" gradientUnits="userSpaceOnUse" gradientTransform="translate(841.685 268.226) scale(427.404 489.185)">
<stop offset="0.24" stop-color="#E02300"/>
<stop offset="0.5" stop-color="#A11900"/>
<stop offset="0.84" stop-color="#570E00"/>
<stop offset="1" stop-color="#390900"/>
</radialGradient>
<radialGradient id="paint13_radial_2003_5480" cx="0" cy="0" r="1" gradientUnits="userSpaceOnUse" gradientTransform="translate(909.581 289.39) scale(432.244 494.726)">
<stop offset="0.24" stop-color="#E02300"/>
<stop offset="0.5" stop-color="#A11900"/>
<stop offset="0.84" stop-color="#570E00"/>
<stop offset="1" stop-color="#390900"/>
</radialGradient>
<radialGradient id="paint14_radial_2003_5480" cx="0" cy="0" r="1" gradientUnits="userSpaceOnUse" gradientTransform="translate(836.82 147.754) scale(395.123 452.239)">
<stop offset="0.24" stop-color="#E02300"/>
<stop offset="0.5" stop-color="#A11900"/>
<stop offset="0.84" stop-color="#570E00"/>
<stop offset="1" stop-color="#390900"/>
</radialGradient>
<radialGradient id="paint15_radial_2003_5480" cx="0" cy="0" r="1" gradientUnits="userSpaceOnUse" gradientTransform="translate(865.014 131.775) scale(359.608 411.59)">
<stop offset="0.24" stop-color="#E02300"/>
<stop offset="0.5" stop-color="#A11900"/>
<stop offset="0.84" stop-color="#570E00"/>
<stop offset="1" stop-color="#390900"/>
</radialGradient>
<linearGradient id="paint16_linear_2003_5480" x1="1050.5" y1="367.5" x2="1050.5" y2="130.5" gradientUnits="userSpaceOnUse">
<stop stop-opacity="0"/>
<stop offset="1" stop-color="white" stop-opacity="0.09"/>
</linearGradient>
</defs>
</svg>
