<?xml version="1.0" standalone="no"?>
<!DOCTYPE svg PUBLIC "-//W3C//DTD SVG 20010904//EN"
 "http://www.w3.org/TR/2001/REC-SVG-20010904/DTD/svg10.dtd">
<svg version="1.0" xmlns="http://www.w3.org/2000/svg"
 width="900.000000pt" height="900.000000pt" viewBox="0 0 900.000000 900.000000"
 preserveAspectRatio="xMidYMid meet">
<metadata>
Created by potrace 1.10, written by Peter Selinger 2001-2011
</metadata>
<g transform="translate(0.000000,900.000000) scale(0.100000,-0.100000)"
fill="#000000" stroke="none">
<path d="M4255 8416 c-5 -2 -71 -9 -145 -15 -328 -28 -721 -114 -938 -207 -18
-8 -39 -14 -47 -14 -7 0 -26 -6 -42 -14 -15 -8 -48 -22 -73 -32 -73 -28 -127
-53 -285 -131 -166 -83 -158 -78 -273 -148 -46 -27 -91 -54 -100 -60 -112 -66
-384 -270 -505 -378 -39 -36 -85 -75 -101 -88 -24 -19 -27 -27 -23 -55 8 -46
44 -93 67 -87 10 3 21 11 24 19 9 23 33 16 60 -18 l25 -33 31 30 c33 32 77
101 49 78 -9 -7 -20 -9 -29 -3 -12 7 -10 13 10 34 13 15 29 26 37 26 7 0 13 8
13 18 1 21 16 40 54 70 35 27 37 27 66 2 13 -11 28 -20 34 -20 6 0 0 -6 -14
-13 -16 -8 -26 -23 -28 -40 -4 -32 11 -34 77 -11 24 8 50 13 57 10 6 -2 15
-23 19 -45 5 -30 12 -41 25 -41 10 0 24 -10 33 -22 12 -19 19 -21 33 -12 26
15 28 31 4 37 -35 9 -24 30 13 23 29 -5 34 -3 51 28 15 28 25 34 63 40 70 9
134 -34 96 -65 -12 -11 -18 -9 -33 11 -12 16 -23 21 -36 16 -16 -6 -14 -10 15
-35 66 -57 113 -156 82 -175 -5 -4 -12 -29 -16 -57 -7 -47 -5 -53 21 -80 25
-26 26 -31 14 -54 -16 -30 -44 -32 -87 -5 -23 14 -34 16 -39 8 -4 -7 -2 -14 4
-16 14 -4 16 -93 3 -107 -5 -6 -11 -19 -13 -30 -2 -14 -11 -20 -28 -20 -19 0
-26 -6 -28 -25 -6 -50 -10 -52 -52 -24 -35 23 -40 31 -40 64 0 27 -7 45 -25
61 -13 13 -25 29 -25 35 0 7 25 24 55 40 31 15 59 32 63 38 21 29 30 85 24
135 -6 51 -9 55 -39 63 -17 4 -43 22 -57 38 -45 54 -86 27 -86 -58 0 -58 10
-67 27 -23 6 16 20 34 31 40 18 9 23 8 32 -10 7 -11 9 -31 6 -44 -8 -32 -71
-106 -112 -130 -19 -11 -41 -30 -49 -42 -15 -21 -14 -24 25 -49 39 -26 50 -47
30 -59 -17 -11 -11 -23 25 -56 47 -43 68 -85 54 -111 -5 -10 -9 -36 -7 -56 3
-32 6 -37 27 -34 13 1 29 10 36 19 25 34 33 4 27 -105 l-5 -108 28 -18 c24
-16 27 -22 21 -55 -4 -24 -1 -44 8 -56 13 -18 11 -50 -5 -70 -4 -5 -10 -27
-14 -48 -6 -28 -3 -42 9 -56 15 -17 15 -21 -4 -65 l-21 -47 -26 21 c-14 11
-39 20 -54 20 -29 0 -40 22 -19 35 5 3 17 22 27 42 9 20 25 38 35 41 22 5 24
32 3 32 -8 0 -15 -6 -15 -13 0 -23 -44 -41 -68 -28 -11 6 -48 11 -81 11 -62 0
-66 -2 -108 -54 -7 -8 -13 -20 -13 -26 0 -14 17 -13 27 3 21 32 104 59 117 38
10 -15 -4 -40 -26 -47 -41 -13 -79 -64 -48 -64 6 0 10 -13 10 -30 0 -25 4 -30
25 -30 14 0 25 -6 25 -12 0 -14 -59 -58 -77 -58 -6 0 -16 -7 -23 -15 -10 -12
-16 -13 -24 -5 -8 8 -6 15 8 25 20 16 15 45 -8 45 -8 0 -35 -16 -60 -35 -26
-19 -50 -35 -55 -35 -12 0 -21 -26 -21 -59 0 -20 -8 -32 -34 -47 -42 -24 -116
-109 -116 -133 0 -10 -6 -24 -14 -30 -7 -6 -16 -26 -20 -43 -4 -21 -31 -54
-86 -107 -68 -65 -80 -82 -80 -109 0 -37 -26 -54 -44 -31 -11 14 -39 33 -64
45 -7 4 -23 -2 -35 -13 -17 -15 -32 -19 -63 -16 -36 4 -44 1 -71 -30 -42 -48
-85 -169 -110 -313 -3 -19 1 -44 11 -62 9 -17 16 -39 16 -49 0 -10 11 -26 24
-35 23 -17 25 -17 42 10 9 14 20 40 24 57 4 24 12 31 34 33 45 5 48 -9 21 -77
-14 -34 -23 -66 -20 -71 3 -4 0 -21 -5 -36 -17 -45 -5 -72 35 -80 44 -8 48
-15 36 -61 -6 -21 -12 -68 -13 -105 -2 -53 0 -70 14 -80 9 -7 18 -22 20 -33 3
-14 11 -19 27 -17 13 1 29 -5 36 -14 10 -15 14 -15 42 -1 20 11 32 26 36 47 5
20 16 34 34 42 16 7 31 17 35 23 4 5 10 6 15 2 4 -5 1 -12 -6 -17 -8 -4 -11
-15 -8 -24 5 -13 10 -14 25 -5 17 11 24 7 49 -21 27 -30 36 -34 94 -37 85 -6
95 -9 79 -28 -10 -12 -2 -25 49 -76 34 -34 61 -68 61 -75 0 -15 72 -64 93 -64
24 0 53 -43 86 -125 38 -96 39 -119 6 -147 -37 -32 -33 -55 4 -29 37 27 39 26
51 -4 6 -16 17 -25 31 -25 11 0 44 -20 72 -45 29 -25 59 -45 67 -45 9 0 25 -7
36 -15 10 -8 30 -15 44 -15 17 0 49 -22 100 -70 l75 -70 -1 -68 c0 -59 -4 -72
-32 -111 -18 -24 -32 -51 -32 -61 0 -9 -7 -25 -15 -36 -10 -14 -14 -48 -15
-130 0 -61 -3 -114 -6 -117 -4 -3 -8 -26 -9 -49 -3 -55 -20 -127 -32 -139 -5
-5 -27 -12 -49 -16 -23 -3 -57 -20 -81 -39 -40 -33 -41 -35 -31 -70 10 -37 -4
-149 -23 -186 -5 -10 -9 -23 -9 -30 0 -7 -8 -32 -17 -55 -17 -40 -21 -43 -55
-43 -49 0 -53 -11 -18 -45 17 -16 30 -34 30 -39 0 -24 -51 -66 -80 -66 -36 0
-43 -11 -28 -44 10 -22 9 -28 -7 -40 -11 -8 -15 -18 -10 -25 4 -7 11 -42 15
-78 6 -47 15 -72 32 -90 20 -22 23 -35 23 -106 0 -89 8 -112 46 -130 13 -7 29
-27 35 -45 5 -18 20 -39 32 -48 12 -8 22 -23 22 -32 0 -12 -3 -13 -12 -4 -7 7
-18 12 -24 12 -23 0 -131 79 -137 99 -3 12 -13 24 -24 28 -27 10 -49 36 -84
100 -18 33 -33 76 -35 101 -3 44 -17 72 -38 72 -13 0 -16 73 -3 86 11 12 8 59
-5 72 -7 7 -20 12 -30 12 -13 0 -22 15 -34 57 -9 31 -22 62 -28 69 -7 6 -20
71 -30 145 -10 74 -23 143 -29 154 -5 10 -14 46 -18 80 -5 33 -13 89 -19 125
-6 36 -12 85 -14 110 -2 25 -9 58 -15 73 -6 16 -11 44 -11 63 0 43 -35 100
-115 184 -48 51 -65 78 -80 125 -17 56 -26 80 -54 145 -6 14 -20 54 -32 90
-12 36 -28 74 -36 86 -13 20 -15 56 -10 209 3 78 15 133 43 187 9 17 14 60 14
121 l0 95 -37 13 c-44 14 -53 24 -53 60 0 14 -11 36 -24 48 -17 16 -25 37 -29
74 -7 66 -23 101 -54 118 -16 8 -35 36 -50 71 -20 46 -30 57 -51 60 -24 3 -51
44 -102 158 -3 8 -5 44 -3 80 2 36 4 72 5 80 0 8 -3 62 -7 120 -7 86 -12 107
-27 118 -14 10 -16 17 -8 26 5 7 8 26 5 42 -13 75 -22 286 -14 344 13 101 35
200 48 213 6 6 11 20 11 32 0 11 7 33 15 49 8 15 15 33 15 39 0 6 13 38 28 71
54 116 62 137 62 164 0 16 5 33 11 39 7 7 13 27 14 45 2 18 8 59 14 91 6 32 8
71 5 86 -4 20 2 40 20 69 14 23 26 46 26 51 0 5 12 32 27 61 34 65 42 149 19
185 -22 33 -31 32 -67 -9 -16 -19 -43 -37 -58 -41 -22 -5 -28 -10 -24 -26 4
-13 0 -19 -11 -19 -9 0 -16 -7 -16 -15 0 -8 -6 -15 -14 -15 -7 0 -25 -15 -38
-32 -89 -117 -301 -519 -373 -708 -9 -25 -22 -58 -29 -75 -18 -43 -37 -95 -46
-130 -4 -16 -12 -41 -17 -55 -6 -14 -18 -52 -27 -85 -10 -33 -24 -80 -32 -105
-8 -25 -14 -54 -14 -64 0 -11 -6 -42 -14 -70 -8 -28 -22 -87 -30 -131 -77
-410 -87 -854 -30 -1285 27 -211 96 -520 149 -670 7 -19 18 -51 24 -70 7 -19
16 -48 21 -65 4 -16 13 -43 20 -60 37 -87 60 -142 85 -200 29 -66 117 -244
150 -300 19 -33 39 -69 45 -80 11 -21 18 -34 63 -103 15 -24 27 -46 27 -49 0
-3 14 -22 30 -43 16 -21 30 -41 30 -44 0 -10 176 -241 260 -341 118 -141 264
-288 405 -409 184 -158 417 -331 520 -386 11 -6 34 -19 50 -29 17 -11 48 -29
70 -41 22 -12 63 -35 90 -50 116 -64 298 -150 415 -195 25 -9 56 -22 70 -27
34 -14 223 -75 290 -95 30 -9 75 -22 99 -29 25 -8 53 -14 64 -14 11 0 43 -6
71 -14 107 -31 310 -63 551 -88 290 -31 795 -3 1062 58 34 8 72 14 84 14 12 0
45 6 73 14 28 8 80 22 116 31 137 36 362 110 465 154 17 7 44 18 60 25 137 57
369 175 508 260 37 22 76 46 85 51 120 72 367 259 504 382 86 77 286 280 354
359 118 138 125 147 183 224 66 87 199 286 231 345 12 22 31 56 42 75 23 39
142 276 166 330 8 19 19 43 23 52 16 32 39 103 39 120 0 9 7 24 16 33 9 9 20
30 24 48 5 18 19 64 33 102 22 64 38 115 73 235 41 140 90 403 104 565 5 50
14 140 20 200 14 126 9 495 -9 650 -38 328 -61 446 -147 753 -9 31 -23 72 -30
90 -8 18 -14 39 -14 47 0 8 -6 29 -14 47 -8 18 -29 69 -46 113 -55 136 -159
353 -216 452 -13 24 -34 61 -47 82 -19 34 -75 125 -127 206 -65 101 -173 251
-195 270 -6 6 -14 18 -18 28 -3 9 -11 17 -17 17 -14 0 -13 -23 1 -37 7 -7 14
-46 17 -87 3 -47 10 -80 18 -87 8 -6 14 -16 14 -21 0 -5 13 -35 29 -68 16 -32
32 -72 36 -89 3 -17 11 -33 16 -36 5 -4 9 -16 9 -29 0 -12 7 -31 15 -42 18
-24 20 -67 3 -62 -7 3 -14 14 -16 26 -2 11 -10 26 -18 32 -8 7 -14 20 -14 29
0 10 -7 26 -15 37 -8 10 -15 25 -15 31 0 7 -13 41 -30 75 -16 34 -30 73 -30
87 0 14 -7 35 -15 45 -8 11 -15 35 -15 54 0 26 -9 41 -37 68 -35 33 -37 34
-54 17 -16 -17 -16 -23 -2 -90 17 -78 11 -103 -28 -103 -22 0 -40 -29 -34 -56
2 -10 9 -62 16 -114 10 -78 17 -98 37 -117 29 -27 57 -30 70 -7 10 18 32 11
32 -11 0 -7 7 -15 15 -19 8 -3 15 -14 15 -24 0 -11 7 -25 15 -32 18 -15 19
-41 3 -59 -10 -11 -10 -14 0 -18 6 -3 12 -21 12 -42 0 -20 6 -45 14 -56 16
-24 25 -73 32 -181 5 -73 3 -86 -20 -132 -21 -41 -26 -68 -28 -128 -1 -75 0
-78 31 -103 17 -15 31 -35 31 -48 0 -12 12 -36 26 -53 24 -28 25 -34 13 -56
-18 -35 -42 -26 -50 19 -3 21 -17 60 -30 88 -23 48 -25 50 -61 45 -30 -3 -38
0 -43 15 -4 10 -4 23 -1 27 3 5 -1 17 -8 27 -12 17 -16 14 -40 -38 -34 -71
-29 -101 15 -92 54 12 72 -23 47 -91 -10 -29 -8 -40 17 -96 15 -35 34 -70 41
-79 8 -8 14 -29 14 -45 0 -16 7 -37 15 -48 17 -22 12 -140 -6 -162 -11 -13 -8
-48 6 -85 4 -10 -4 -25 -19 -40 -14 -13 -26 -29 -26 -36 0 -15 -47 -85 -63
-95 -7 -4 -25 -8 -42 -8 -38 -1 -61 -18 -86 -66 -28 -55 -24 -73 24 -129 65
-75 77 -109 77 -214 0 -50 -4 -91 -9 -91 -5 0 -19 -16 -32 -35 -29 -43 -43
-44 -59 -6 -6 16 -20 37 -31 47 -10 9 -19 23 -19 31 0 18 -20 16 -42 -3 -17
-16 -19 -15 -33 19 -8 20 -15 52 -15 70 0 30 -23 102 -37 117 -2 3 -12 -6 -22
-19 -13 -17 -23 -22 -39 -16 -17 5 -22 14 -22 44 0 37 -31 114 -50 126 -5 3
-10 20 -10 36 0 32 -37 115 -47 105 -3 -3 -11 -16 -17 -28 -6 -13 -28 -34 -49
-47 -23 -15 -37 -32 -37 -45 0 -12 -6 -30 -14 -41 -7 -11 -16 -31 -19 -45 -7
-29 -77 -139 -101 -159 -23 -20 -24 -272 0 -292 25 -21 44 -65 44 -104 0 -61
-53 -59 -56 3 0 15 -2 42 -2 60 -2 37 -14 40 -42 12 -27 -27 -39 -25 -45 8 -5
24 -23 68 -45 112 -4 9 -11 31 -14 50 -4 19 -13 49 -21 65 -38 86 -61 165 -70
237 -7 63 -19 79 -40 52 -12 -17 -15 -17 -49 9 -40 31 -43 39 -21 57 22 18 18
30 -8 30 -16 0 -34 16 -61 51 -35 47 -40 51 -69 44 -18 -3 -78 -8 -135 -11
-101 -4 -103 -4 -127 22 -14 15 -25 31 -25 36 0 6 -21 9 -47 8 -121 -6 -137
-2 -155 36 -10 19 -18 43 -18 54 0 10 -3 21 -7 23 -20 11 -60 15 -72 8 -20
-13 15 -83 57 -112 30 -20 33 -26 27 -60 -7 -41 12 -67 22 -30 9 35 28 18 25
-22 -6 -60 20 -59 85 4 l55 54 16 -25 c38 -55 65 -80 87 -80 32 0 35 -8 28
-67 -3 -33 -14 -61 -29 -78 -13 -16 -24 -41 -24 -56 0 -31 -58 -102 -102 -125
-15 -8 -44 -30 -65 -49 -21 -20 -49 -38 -63 -42 -14 -3 -43 -18 -65 -32 -67
-43 -104 -61 -124 -61 -10 0 -24 -7 -31 -15 -7 -8 -21 -15 -31 -15 -25 0 -29
-11 -19 -54 12 -54 22 -61 58 -42 17 9 47 16 66 16 19 0 38 5 41 10 3 6 15 10
26 10 11 0 31 7 44 16 51 33 68 -1 39 -78 -86 -232 -109 -268 -253 -400 -22
-21 -48 -52 -57 -70 -9 -18 -27 -44 -40 -58 -13 -14 -36 -50 -52 -80 -15 -30
-34 -65 -42 -77 -12 -18 -12 -28 -2 -56 7 -18 12 -60 12 -93 1 -35 6 -67 15
-78 10 -13 14 -46 13 -114 0 -81 -4 -101 -22 -126 -11 -17 -23 -32 -26 -34
-20 -9 -125 -83 -160 -111 l-42 -35 7 -69 c9 -87 -9 -132 -70 -176 -29 -21
-46 -41 -50 -62 -4 -17 -12 -40 -19 -52 -27 -51 -70 -113 -90 -132 -55 -52
-116 -95 -133 -95 -11 0 -41 -7 -67 -16 -26 -9 -63 -14 -84 -11 -23 3 -47 -2
-64 -12 -26 -14 -29 -14 -45 2 -11 10 -19 35 -20 60 -3 60 -14 110 -27 127
-33 42 -56 117 -66 218 -7 72 -15 96 -65 194 -53 103 -56 115 -46 143 6 17 11
41 11 52 0 25 21 80 57 147 23 43 24 52 14 86 -6 20 -11 58 -11 82 0 31 -9 63
-30 101 -16 31 -30 62 -30 69 -1 7 -23 42 -50 78 l-50 65 8 85 c12 142 10 165
-18 189 -30 25 -48 26 -70 6 -16 -15 -20 -12 -43 28 -23 38 -32 45 -67 51 -31
5 -53 1 -87 -14 -25 -11 -52 -20 -60 -20 -7 0 -25 -7 -38 -16 -21 -14 -28 -14
-41 -3 -20 17 -100 14 -146 -5 -21 -9 -43 -16 -51 -16 -16 0 -187 167 -187
183 0 25 -46 103 -81 138 -35 35 -38 42 -40 106 -1 37 3 91 10 118 22 85 25
161 7 196 -25 50 -19 80 29 152 25 37 45 70 45 72 0 17 83 113 128 146 29 23
52 48 52 58 0 26 37 138 53 161 7 11 35 36 60 55 37 28 47 42 47 65 0 48 -9
60 -46 60 -40 0 -51 18 -34 50 10 18 9 25 -3 38 -14 13 -14 19 -3 41 8 14 17
66 21 114 7 83 9 89 34 98 14 6 40 8 56 4 131 -28 170 -13 178 68 5 57 -5 97
-26 97 -18 0 -57 42 -57 63 0 11 12 18 38 23 20 4 40 11 43 16 4 6 15 5 28 -3
19 -12 23 -11 38 11 10 14 20 34 23 45 4 13 14 20 30 20 18 0 29 9 40 33 9 18
30 41 47 52 18 10 33 29 35 42 3 21 9 23 61 26 39 2 57 7 57 16 0 8 -7 16 -15
20 -11 4 -15 21 -15 59 0 44 4 58 25 77 31 29 59 18 60 -21 0 -33 40 -39 48
-8 4 13 2 28 -2 33 -9 12 -21 68 -22 99 0 24 -25 33 -46 16 -8 -8 -37 -19 -62
-26 -40 -10 -48 -10 -59 5 -8 11 -11 29 -7 51 5 24 2 38 -11 52 -26 28 -10 64
49 110 109 86 172 154 205 221 23 46 31 73 27 91 -8 32 37 77 78 77 16 0 43
11 61 25 18 14 42 25 53 25 12 0 31 9 44 19 21 17 27 17 50 6 22 -12 29 -12
49 2 22 16 24 15 38 -5 8 -12 20 -22 27 -22 7 0 18 -7 25 -15 7 -8 37 -22 66
-31 30 -8 56 -20 59 -25 4 -5 14 -9 23 -9 9 0 40 -16 69 -36 44 -30 53 -42 53
-66 0 -28 2 -30 28 -23 15 3 38 17 52 31 l25 25 -22 5 c-26 7 -30 35 -9 53 7
6 21 8 31 5 13 -5 16 -15 12 -41 -5 -26 -2 -36 10 -40 9 -4 19 -1 21 5 2 7 19
19 36 26 18 8 43 24 55 37 17 18 31 23 70 22 35 0 51 4 55 14 4 10 17 14 43
11 35 -3 38 -1 41 25 3 26 25 37 37 17 3 -5 20 -10 37 -10 16 0 43 -8 59 -17
15 -9 32 -14 36 -10 7 7 -30 44 -79 78 l-22 16 27 36 c15 20 27 40 26 44 -4
27 3 52 17 57 21 8 65 -20 71 -45 7 -25 33 -25 33 0 0 29 18 35 47 16 21 -14
29 -15 49 -4 27 14 32 39 9 39 -27 0 -16 28 16 39 30 10 31 13 26 52 -7 54 11
82 66 104 49 20 57 29 57 70 0 25 -7 33 -42 51 -24 12 -68 29 -98 39 -30 10
-66 29 -80 42 -63 58 -69 66 -64 74 3 5 19 9 35 9 22 0 32 -6 39 -24 6 -17 21
-28 49 -36 25 -7 42 -18 46 -31 6 -19 8 -20 26 -3 18 16 21 16 58 -11 22 -15
41 -36 43 -48 2 -12 12 -24 23 -27 11 -3 36 -17 55 -31 22 -17 53 -28 83 -32
46 -4 61 -15 87 -58 6 -10 4 -25 -6 -43 -18 -36 -19 -86 -1 -86 8 0 22 9 33
21 16 18 27 20 69 15 51 -5 94 2 152 25 32 13 34 12 80 -33 55 -53 79 -63 117
-48 26 9 27 13 20 55 -6 46 3 58 25 31 6 -7 30 -16 52 -20 23 -4 56 -18 74
-32 27 -20 40 -24 67 -19 25 5 38 2 47 -9 14 -17 40 -20 79 -10 29 8 28 28 -3
53 -14 11 -52 42 -83 69 -49 43 -94 81 -162 135 -45 37 -141 107 -180 133 -25
17 -74 51 -110 75 -36 25 -72 48 -80 52 -8 4 -28 16 -45 27 -16 11 -39 24 -50
30 -11 6 -47 26 -80 44 -69 39 -181 95 -275 138 -107 49 -121 55 -252 104 -24
9 -58 22 -76 30 -18 8 -39 14 -47 14 -8 0 -29 6 -47 14 -49 20 -209 66 -313
89 -174 38 -355 68 -540 88 -104 11 -589 23 -610 15z m-504 -612 c8 -8 22 -14
31 -14 29 0 28 -13 -3 -32 -47 -29 -25 -41 50 -29 67 11 91 7 91 -15 0 -14
-49 -44 -74 -44 -8 0 -42 -26 -75 -58 -55 -52 -61 -61 -61 -99 0 -24 6 -46 15
-53 19 -16 10 -30 -20 -30 -27 0 -42 -17 -28 -31 5 -5 7 -26 4 -47 -5 -31 -11
-38 -34 -40 -19 -2 -27 -9 -27 -23 0 -11 -8 -32 -17 -46 -12 -18 -18 -47 -18
-83 0 -53 -1 -55 -28 -58 -18 -2 -31 -11 -37 -27 -9 -22 -47 -45 -140 -80 -64
-24 -101 -44 -130 -70 -14 -12 -51 -35 -84 -51 -73 -36 -153 -129 -220 -255
-37 -68 -52 -74 -105 -38 -25 16 -47 31 -49 34 -2 2 -6 57 -9 123 -6 154 4
191 68 257 85 86 84 84 72 96 -7 7 -14 5 -23 -6 -7 -8 -21 -15 -31 -15 -14 0
-19 7 -19 29 0 31 16 43 49 34 29 -7 35 15 16 60 -16 39 -13 57 10 57 27 0 35
132 11 179 -15 28 -21 31 -66 31 -49 0 -50 1 -50 30 0 27 3 30 31 30 38 0 35
24 -4 28 -34 4 -35 20 -2 28 13 3 29 12 36 20 6 8 24 14 39 14 15 0 33 7 40
15 7 8 18 15 24 15 7 0 23 11 36 25 20 21 21 25 7 31 -9 3 -30 -5 -49 -19 -18
-14 -45 -28 -60 -32 -15 -4 -29 -13 -32 -21 -3 -8 -19 -14 -37 -14 -26 0 -43
-11 -86 -55 -61 -62 -90 -80 -148 -88 -32 -5 -45 -2 -68 17 -25 20 -27 24 -11
30 10 4 24 0 35 -10 22 -20 24 -15 33 59 4 37 3 47 -9 47 -8 0 -15 7 -15 16 0
11 6 14 21 9 16 -5 29 3 58 34 43 46 76 53 104 20 13 -14 27 -19 49 -17 45 4
47 25 3 34 l-37 7 21 20 c19 20 47 28 196 58 101 21 112 21 144 5 36 -19 39
-32 10 -41 -16 -5 -18 -10 -9 -18 8 -9 15 -7 25 7 11 15 22 17 51 13 39 -6 89
13 110 41 10 14 13 14 28 -1 23 -22 39 -21 61 3 22 24 33 25 57 3 17 -15 19
-15 38 2 15 14 31 17 67 13 27 -3 59 -2 73 2 32 9 80 1 101 -16z m1574 -72
c10 -22 35 -31 35 -12 0 12 47 13 54 2 7 -12 -53 -55 -67 -48 -48 24 -67 42
-67 69 0 26 32 18 45 -11z m-115 -47 c0 -8 -6 -15 -14 -15 -17 0 -28 14 -19
24 12 12 33 6 33 -9z m-475 -25 c10 -15 -47 -80 -71 -80 -33 0 -36 -11 -8 -37
14 -13 24 -29 21 -36 -7 -21 -46 -20 -65 2 -23 28 -55 18 -69 -20 -9 -24 -17
-30 -35 -27 -18 2 -24 11 -28 38 -4 26 -12 38 -33 48 -32 15 -53 53 -44 77 5
12 18 14 62 11 30 -3 59 -8 65 -11 6 -3 14 5 20 19 9 25 13 26 94 26 47 0 88
-4 91 -10z m-2200 -65 c0 -38 -2 -40 -34 -43 -50 -5 -58 10 -26 53 37 47 60
43 60 -10z m-137 -21 c-23 -24 -48 -32 -48 -15 0 14 51 52 61 45 5 -3 -1 -16
-13 -30z m-108 -26 c-1 -58 6 -73 31 -70 13 2 44 4 69 6 26 1 51 6 58 10 16 9
32 -1 32 -21 0 -11 -6 -14 -25 -9 -14 4 -35 2 -46 -5 -20 -10 -20 -11 -3 -30
16 -18 16 -19 -9 -19 -14 0 -29 5 -32 10 -3 6 -34 10 -69 10 -50 0 -67 -4 -81
-20 -10 -11 -22 -20 -27 -20 -11 0 -10 47 2 70 7 13 7 21 0 25 -12 7 -4 25 12
25 5 0 8 -6 5 -14 -8 -20 3 -27 25 -15 13 7 17 16 13 30 -5 13 0 27 12 39 24
25 33 24 33 -2z m4483 -6 c9 -13 -30 -52 -51 -52 -21 0 -52 24 -52 40 0 5 17
11 38 13 20 2 42 4 49 5 6 1 14 -1 16 -6z m-1147 -64 c4 -6 -5 -21 -22 -36
-108 -90 -134 -125 -133 -175 1 -55 52 -130 94 -137 37 -6 46 -30 11 -30 -13
0 -28 5 -31 10 -3 6 -23 8 -43 4 -31 -4 -43 0 -75 27 -42 35 -43 45 -17 134 6
22 11 52 11 67 -1 33 44 88 72 88 12 1 40 14 62 30 44 31 60 36 71 18z m-3023
-55 c4 -2 2 -13 -3 -23 -9 -16 -14 -18 -35 -8 -18 8 -32 8 -54 -1 -22 -10 -34
-10 -50 -1 -50 26 -3 52 79 43 30 -3 58 -7 63 -10z m-179 -59 c12 -5 13 -10 4
-30 -9 -19 -19 -24 -49 -24 -20 0 -44 3 -53 6 -14 5 -14 8 1 30 15 24 60 32
97 18z m1102 -519 c8 -19 21 -19 39 -2 8 9 34 13 66 13 49 -1 55 -4 72 -33 22
-39 11 -69 -31 -79 -15 -4 -34 -12 -42 -19 -26 -21 -79 -26 -110 -10 -47 25
-63 71 -44 133 5 17 43 15 50 -3z m424 -412 c0 -3 -7 -15 -16 -24 -16 -17 -15
-19 10 -28 29 -12 30 -14 15 -39 -8 -13 -4 -30 20 -76 17 -32 31 -65 31 -73 0
-8 21 -35 46 -60 25 -24 44 -45 43 -46 -2 -2 -23 -19 -47 -40 -37 -33 -47 -37
-80 -31 -28 4 -41 2 -51 -10 -14 -17 -46 -22 -55 -8 -8 13 23 52 40 52 19 0
18 26 -1 34 -20 7 -20 75 -1 82 17 7 29 49 21 74 -3 11 -17 20 -33 22 -26 3
-27 4 -27 72 0 47 -4 71 -12 73 -24 8 -13 22 20 26 58 7 77 7 77 0z m-116
-218 c-8 -49 -27 -83 -65 -113 -38 -31 -64 -23 -54 16 4 15 6 42 6 60 -1 25 4
35 24 44 14 6 25 15 25 20 0 4 10 18 22 30 21 21 21 21 35 2 10 -13 12 -32 7
-59z m3866 -81 c0 -8 7 -17 15 -20 17 -7 20 -30 5 -39 -6 -3 -13 2 -17 12 -4
10 -13 23 -22 29 -8 7 -12 18 -8 28 8 20 27 12 27 -10z m66 -111 c34 -52 44
-75 44 -109 0 -46 -23 -44 -54 4 -31 46 -46 132 -23 132 8 0 23 -12 33 -27z
m60 -240 c6 -16 21 -73 34 -128 13 -55 27 -107 31 -116 6 -11 0 -22 -21 -38
-22 -15 -30 -30 -30 -51 0 -21 -4 -28 -14 -24 -8 3 -12 13 -9 25 3 10 1 19 -5
19 -11 0 -24 -58 -23 -112 1 -45 -13 -56 -40 -32 -23 21 -24 39 -4 78 8 15 15
41 15 56 0 15 7 33 16 40 28 24 36 52 40 142 3 70 0 95 -12 114 -15 23 -13 54
3 54 5 0 13 -12 19 -27z m-6216 -622 c7 -14 7 -28 -1 -48 -10 -26 -12 -27 -19
-7 -7 18 -3 74 6 74 2 0 8 -9 14 -19z m6080 -256 c0 -49 -6 -55 -26 -27 -17
21 -18 44 -2 60 21 21 28 13 28 -33z m-6065 -43 c28 -53 88 -112 113 -112 26
0 50 -21 57 -51 5 -20 1 -29 -19 -42 -32 -21 -33 -21 -46 3 -7 13 -7 26 -1 38
13 25 -4 42 -41 42 -38 0 -78 27 -78 53 0 12 -16 38 -36 58 -39 40 -38 62 3
57 18 -2 32 -15 48 -46z m5873 -197 c-15 -34 -38 -32 -38 3 0 36 8 44 31 31
16 -8 17 -13 7 -34z m252 -36 c7 -12 9 -37 5 -59 -5 -27 -1 -50 11 -75 13 -28
14 -39 5 -48 -19 -19 -41 20 -41 73 0 25 -5 51 -11 57 -12 12 -3 73 11 73 5 0
14 -9 20 -21z m95 -404 c0 -21 -5 -40 -11 -42 -13 -4 -26 50 -17 72 10 28 28
9 28 -30z m-559 -20 c20 -49 18 -75 -6 -75 -18 0 -20 7 -20 55 0 30 2 55 6 55
3 0 12 -16 20 -35z m504 -16 c0 -24 -23 -21 -28 4 -2 10 3 17 12 17 10 0 16
-9 16 -21z m-114 -85 c23 -35 32 -269 10 -277 -8 -3 -17 -28 -21 -59 -4 -32
-17 -66 -32 -86 -22 -30 -30 -33 -57 -28 -41 8 -56 30 -56 82 0 24 -4 46 -10
49 -5 3 -10 21 -10 40 0 19 5 37 10 40 6 3 10 15 10 26 0 13 7 19 21 19 33 0
69 45 69 86 0 21 9 47 20 61 11 14 20 36 20 49 0 31 6 30 26 -2z m-322 -48
c13 -17 23 -51 27 -89 4 -34 10 -73 14 -86 7 -22 6 -23 -18 -17 -37 9 -42 -8
-17 -59 12 -25 19 -53 15 -64 -4 -12 1 -24 12 -33 18 -13 20 -22 24 -110 2
-53 11 -66 58 -74 20 -4 52 -18 71 -30 19 -13 49 -23 65 -24 124 0 125 -1 125
-30 0 -25 -40 -38 -52 -16 -7 12 -24 16 -66 16 -31 0 -90 8 -130 18 -73 18
-82 24 -108 82 -4 8 -13 22 -19 30 -7 8 -21 49 -30 90 -10 41 -24 82 -32 91
-7 8 -13 27 -13 41 0 14 -7 28 -15 32 -8 3 -15 17 -15 31 0 14 -3 25 -8 25
-11 0 -54 99 -47 110 11 18 34 11 51 -15 18 -27 58 -34 67 -11 3 8 3 40 0 72
-7 64 5 69 41 20z m537 -154 c7 -20 6 -21 -11 -9 -11 6 -20 18 -20 25 0 20 22
9 31 -16z m-74 -7 c7 -20 -2 -29 -21 -22 -9 4 -13 13 -10 22 8 19 23 19 31 0z
m148 -55 c3 -5 23 -10 44 -10 49 0 103 -54 124 -125 20 -67 41 -211 32 -224
-10 -18 -43 -13 -64 10 -13 14 -26 19 -40 14 -29 -9 -47 36 -28 73 11 24 10
33 -10 75 -13 27 -34 52 -48 59 -16 7 -25 19 -25 35 0 26 3 28 30 11 24 -15
34 -6 25 21 -7 22 -39 29 -50 11 -10 -16 -45 -12 -45 6 0 39 39 71 55 44z
m-201 -45 c-1 -16 -3 -69 -4 -117 -1 -50 -6 -88 -12 -88 -5 0 -18 10 -29 23
-15 18 -18 39 -19 113 0 50 3 94 7 98 4 4 19 6 33 4 21 -3 25 -8 24 -33z m456
-73 c0 -5 -6 -16 -13 -27 -16 -20 -33 -5 -23 20 6 16 36 21 36 7z m-740 -31
c0 -5 -7 -14 -16 -21 -12 -11 -18 -10 -31 3 -23 22 0 52 28 36 10 -5 19 -13
19 -18z m370 -206 c0 -8 -7 -15 -15 -15 -8 0 -15 -7 -15 -15 0 -9 -9 -15 -25
-15 -14 0 -25 5 -25 10 0 6 11 15 25 20 14 5 25 14 25 20 0 5 7 10 15 10 8 0
15 -7 15 -15z m199 -182 c-1 -38 -6 -73 -11 -80 -5 -6 -9 -68 -9 -137 0 -78
-5 -145 -14 -181 -8 -31 -15 -63 -15 -72 0 -23 -83 -199 -120 -258 -11 -16
-23 -37 -27 -45 -8 -17 -45 -72 -54 -80 -3 -3 -9 -12 -13 -20 -19 -40 -51 -82
-103 -137 -12 -13 -34 -23 -49 -23 -23 0 -26 3 -21 28 3 15 8 37 12 49 6 18 4
21 -14 16 -28 -7 -39 22 -17 46 25 27 19 38 -21 43 -50 7 -75 -4 -121 -50 -22
-22 -61 -47 -87 -57 -26 -10 -49 -24 -52 -32 -6 -16 -53 -18 -53 -1 0 6 11 26
25 44 14 18 25 42 25 54 0 11 7 37 15 57 8 19 15 49 15 65 0 41 31 158 41 158
5 0 9 10 9 22 0 47 49 125 116 184 103 90 122 112 149 168 13 28 39 74 57 103
28 44 38 52 64 53 33 0 74 43 74 79 0 28 37 51 82 51 46 0 48 -11 14 -75 -21
-38 -23 -51 -14 -75 12 -35 27 -47 38 -30 4 7 16 47 25 89 30 128 56 149 54
44z m-2300 -261 c14 -26 15 -93 2 -125 -6 -16 -11 -33 -11 -38 0 -5 -4 -17 -9
-27 -25 -49 -51 -110 -51 -120 0 -6 -18 -45 -40 -87 -22 -42 -40 -82 -40 -89
0 -22 -55 -66 -83 -66 -32 0 -51 31 -42 67 3 15 1 39 -5 54 -10 24 -9 32 11
61 33 46 49 95 49 154 0 56 7 65 60 83 35 12 91 75 110 126 11 29 35 33 49 7z
m1853 -890 c-7 -9 -16 -27 -22 -39 -5 -13 -14 -23 -20 -23 -15 0 -12 26 5 44
8 8 15 21 15 29 0 20 12 29 24 17 7 -7 7 -16 -2 -28z m-5090 -527 c0 -5 -5
-11 -11 -13 -6 -2 -11 4 -11 13 0 9 5 15 11 13 6 -2 11 -8 11 -13z"/>
<path d="M2692 7583 c4 -39 28 -42 28 -4 0 21 -5 31 -16 31 -11 0 -14 -8 -12
-27z"/>
<path d="M3505 7149 c-4 -6 -5 -13 -2 -16 7 -7 27 6 27 18 0 12 -17 12 -25 -2z"/>
<path d="M4572 7598 c3 -7 13 -15 22 -16 12 -3 17 1 14 10 -3 7 -13 15 -22 16
-12 3 -17 -1 -14 -10z"/>
<path d="M2167 7284 c-19 -10 -27 -21 -23 -31 4 -8 -7 -31 -24 -53 -16 -21
-30 -42 -30 -47 0 -6 -15 -14 -32 -19 -43 -13 -48 -40 -11 -70 45 -37 100 -25
61 14 -18 18 8 41 54 44 34 3 43 8 61 39 19 34 19 44 -2 79 -5 8 -13 25 -17
37 -9 20 -11 21 -37 7z"/>
<path d="M1935 7089 c-11 -32 8 -44 39 -24 32 21 33 31 4 39 -34 9 -36 8 -43
-15z"/>
<path d="M5944 6991 c0 -34 2 -61 4 -61 8 0 41 41 44 57 2 10 13 19 26 21 37
5 27 32 -12 32 -19 0 -41 2 -49 6 -11 4 -14 -7 -13 -55z"/>
<path d="M4975 6911 c-2 -4 9 -23 25 -42 17 -19 29 -46 30 -62 0 -31 42 -57
48 -30 2 7 16 16 30 19 36 7 75 41 69 58 -4 10 -17 13 -44 9 -29 -3 -52 3 -95
25 -32 17 -60 27 -63 23z"/>
<path d="M4692 6834 c-16 -11 -22 -25 -22 -54 0 -21 4 -41 9 -45 14 -8 81 54
81 74 0 19 -19 41 -35 41 -6 0 -21 -7 -33 -16z"/>
<path d="M1700 6815 c0 -8 7 -15 15 -15 8 0 15 7 15 15 0 8 -7 15 -15 15 -8 0
-15 -7 -15 -15z"/>
<path d="M2100 6815 c-7 -8 -22 -15 -33 -15 -22 0 -103 -79 -152 -150 -26 -36
-30 -49 -21 -63 8 -12 8 -22 -2 -37 -17 -27 -15 -35 12 -65 13 -14 27 -42 31
-63 4 -20 15 -46 26 -58 16 -17 18 -26 10 -47 -5 -14 -15 -28 -20 -32 -14 -8
-14 -62 -1 -70 17 -10 50 15 56 43 12 55 27 81 59 104 46 31 73 83 81 154 5
41 16 71 36 98 22 31 28 50 28 90 -1 44 -5 56 -35 89 -38 40 -56 45 -75 22z"/>
<path d="M4623 6712 c-28 -3 -36 -10 -53 -49 -26 -59 -25 -67 6 -109 25 -32
26 -35 10 -59 -9 -14 -20 -25 -25 -25 -5 0 -10 -28 -10 -61 0 -49 -4 -66 -22
-85 -17 -18 -26 -21 -41 -13 -14 7 -20 6 -24 -6 -3 -8 -16 -15 -29 -15 -40 0
-47 -46 -11 -84 32 -36 62 -32 118 13 10 8 27 11 43 7 43 -11 73 3 85 38 6 18
8 40 4 49 -7 18 12 84 27 93 6 3 19 -2 29 -11 11 -10 26 -15 34 -12 14 5 14
10 1 40 -20 48 -6 61 88 81 33 8 35 33 3 47 -18 9 -29 8 -47 -4 -13 -8 -42
-17 -64 -21 -37 -5 -42 -3 -58 23 -11 19 -17 51 -17 94 0 36 -3 67 -7 69 -5 2
-23 2 -40 0z m7 -321 c0 -12 -29 -35 -36 -28 -11 10 5 37 21 37 8 0 15 -4 15
-9z"/>
<path d="M4330 6225 c0 -20 5 -25 24 -25 30 0 42 16 26 35 -21 25 -50 19 -50
-10z"/>
<path d="M1707 6057 c-40 -20 -41 -37 -2 -37 13 0 31 -7 40 -16 31 -32 58 3
35 45 -14 27 -31 29 -73 8z"/>
<path d="M1706 5927 c-39 -57 -51 -109 -26 -114 15 -3 50 59 50 90 0 28 19 29
32 3 14 -32 54 -35 63 -6 11 34 -4 60 -34 60 -15 0 -32 5 -37 10 -8 8 -22 -5
-48 -43z"/>
<path d="M2094 5966 c-8 -22 3 -33 18 -18 9 9 9 15 0 24 -9 9 -13 7 -18 -6z"/>
<path d="M5185 5820 c-25 -26 -27 -33 -17 -55 7 -14 12 -30 12 -34 0 -13 -38
-20 -68 -12 -22 6 -26 12 -24 34 5 38 -36 57 -73 33 -30 -20 -75 -88 -75 -114
0 -10 -7 -27 -15 -38 -15 -19 -20 -66 -9 -77 3 -3 16 -2 28 3 13 5 39 4 62 -3
37 -9 44 -8 80 16 43 30 76 34 93 13 11 -13 31 -19 107 -32 37 -7 94 19 94 42
0 19 -98 124 -117 124 -26 0 -32 42 -10 72 17 22 18 30 7 43 -19 23 -43 18
-75 -15z"/>
<path d="M5663 5840 c-34 -4 -46 -12 -67 -43 -29 -42 -34 -85 -11 -93 9 -4 15
-20 15 -43 1 -44 15 -70 57 -105 31 -26 31 -27 17 -61 -19 -47 -18 -71 7 -104
27 -37 97 -51 135 -26 32 21 31 33 -11 102 l-35 58 22 17 c19 13 20 19 9 32
-7 8 -16 14 -20 13 -4 -1 -23 14 -42 33 -37 37 -56 77 -58 122 -1 23 5 29 32
36 24 6 32 14 32 31 0 29 -25 39 -82 31z"/>
<path d="M1748 5804 c-27 -37 -27 -64 -2 -64 8 0 14 10 14 22 0 12 8 30 17 40
11 12 13 22 7 28 -7 7 -19 -2 -36 -26z"/>
<path d="M1850 5825 c0 -21 27 -30 45 -15 19 16 10 30 -21 30 -15 0 -24 -6
-24 -15z"/>
<path d="M5923 5813 c-28 -19 -29 -54 -3 -78 28 -25 39 -10 31 46 -6 46 -6 46
-28 32z"/>
<path d="M4407 5753 c-4 -3 -7 -20 -7 -38 0 -23 11 -41 45 -75 25 -24 45 -50
45 -58 0 -7 13 -21 30 -30 45 -26 54 -50 35 -95 -8 -20 -18 -37 -20 -37 -12 0
-45 67 -45 91 0 23 -5 28 -36 34 -46 8 -80 30 -87 54 -3 14 -11 17 -31 14 -25
-5 -26 -3 -26 35 0 52 -19 69 -59 52 -16 -6 -32 -18 -35 -25 -2 -7 -27 -18
-54 -25 -51 -12 -78 -34 -99 -82 -7 -16 -19 -28 -27 -28 -23 0 -66 -59 -66
-91 0 -46 -43 -106 -82 -114 -43 -10 -88 -33 -88 -46 0 -5 15 -16 33 -23 68
-28 72 -28 111 8 40 39 88 56 154 56 24 0 52 5 63 11 14 7 24 7 32 1 8 -7 18
-6 31 4 29 21 47 17 85 -18 33 -31 33 -33 28 -93 -3 -33 -3 -66 1 -71 4 -6 28
-14 54 -18 30 -5 65 -20 95 -41 27 -19 69 -46 94 -59 42 -23 48 -24 68 -10 11
8 21 26 21 39 0 50 80 61 136 19 19 -15 51 -30 72 -35 20 -4 58 -13 84 -20 43
-11 50 -10 68 6 17 15 24 16 46 7 33 -16 91 -15 101 1 8 12 18 88 29 210 5 56
4 67 -9 67 -8 0 -18 -7 -21 -16 -5 -13 -15 -15 -49 -10 -64 10 -89 10 -119 2
-22 -7 -29 -4 -34 10 -4 11 -23 36 -42 56 -38 40 -40 45 -49 121 -5 45 -23 62
-38 36 -4 -6 -13 -8 -21 -5 -21 8 -64 -15 -64 -34 0 -9 7 -25 15 -36 16 -21
20 -91 5 -114 -14 -22 -62 18 -73 61 -4 19 -14 39 -20 44 -27 22 -47 66 -47
103 0 31 -7 45 -38 75 -21 20 -43 37 -50 37 -18 0 -62 50 -62 70 0 23 -65 41
-83 23z m-120 -255 c-18 -52 -31 -55 -35 -9 -3 27 2 39 20 52 29 23 33 12 15
-43z m-157 -27 c0 -6 -5 -13 -10 -16 -15 -9 -43 3 -35 15 8 13 45 13 45 1z
m358 -93 c16 -16 15 -45 0 -51 -21 -7 -76 4 -81 17 -13 34 54 61 81 34z m672
-128 c21 -21 27 -50 11 -50 -14 0 -52 51 -45 61 8 13 12 11 34 -11z"/>
<path d="M4953 5528 c2 -7 12 -13 22 -13 10 0 20 6 23 13 2 7 -6 12 -23 12
-17 0 -25 -5 -22 -12z"/>
<path d="M5173 4933 c-15 -5 -17 -44 -4 -58 4 -6 16 -32 26 -60 10 -27 24 -57
30 -65 31 -40 105 -205 105 -233 0 -19 12 -51 30 -77 16 -25 30 -58 30 -73 0
-33 37 -87 60 -87 8 0 28 -14 43 -32 16 -18 32 -27 37 -22 11 12 -16 149 -35
177 -8 12 -15 31 -15 43 0 11 -15 37 -34 56 -42 43 -56 69 -56 103 0 34 -34
96 -130 235 -9 14 -20 37 -23 51 -7 26 -42 49 -64 42z"/>
<path d="M5104 3585 c-8 -21 -14 -49 -12 -64 2 -21 8 -26 28 -23 37 3 62 38
58 81 -3 31 -7 36 -31 39 -23 3 -30 -2 -43 -33z"/>
</g>
</svg>
