<svg width="41" height="41" viewBox="0 0 41 41" fill="none" xmlns="http://www.w3.org/2000/svg">
<g clip-path="url(#clip0_214_10922)">
<path d="M27.5119 37.0706C27.5119 37.4022 27.3802 37.7201 27.1458 37.9545C26.9114 38.1889 26.5934 38.3206 26.2619 38.3206H13.7619C13.4304 38.3206 13.1125 38.1889 12.878 37.9545C12.6436 37.7201 12.5119 37.4022 12.5119 37.0706C12.5119 36.7391 12.6436 36.4212 12.878 36.1868C13.1125 35.9523 13.4304 35.8206 13.7619 35.8206H26.2619C26.5934 35.8206 26.9114 35.9523 27.1458 36.1868C27.3802 36.4212 27.5119 36.7391 27.5119 37.0706ZM33.7619 17.0706C33.7673 19.1545 33.2966 21.212 32.3856 23.0861C31.4747 24.9603 30.1476 26.6016 28.5057 27.8847C28.1987 28.12 27.9495 28.4224 27.7773 28.7688C27.6051 29.1152 27.5143 29.4963 27.5119 29.8831V30.8206C27.5119 31.4837 27.2485 32.1196 26.7797 32.5884C26.3109 33.0572 25.675 33.3206 25.0119 33.3206H15.0119C14.3489 33.3206 13.713 33.0572 13.2442 32.5884C12.7753 32.1196 12.5119 31.4837 12.5119 30.8206V29.8831C12.5117 29.5009 12.4238 29.1239 12.255 28.781C12.0863 28.4381 11.8412 28.1384 11.5385 27.905C9.90067 26.6295 8.5745 24.9981 7.66033 23.1343C6.74616 21.2705 6.26796 19.2231 6.26192 17.1472C6.2213 9.70033 12.24 3.49877 19.6807 3.32064C21.514 3.27646 23.3377 3.59947 25.0444 4.27067C26.751 4.94186 28.3061 5.94768 29.6182 7.22891C30.9303 8.51014 31.9729 10.0409 32.6845 11.7311C33.3961 13.4213 33.7625 15.2368 33.7619 17.0706ZM25.8963 17.4363C25.7802 17.32 25.6423 17.2278 25.4906 17.1649C25.3389 17.102 25.1762 17.0697 25.0119 17.0697C24.8477 17.0697 24.685 17.102 24.5332 17.1649C24.3815 17.2278 24.2436 17.32 24.1275 17.4363L20.0119 21.5535L15.8963 17.4363C15.6617 17.2017 15.3436 17.0699 15.0119 17.0699C14.6802 17.0699 14.3621 17.2017 14.1275 17.4363C13.893 17.6708 13.7612 17.9889 13.7612 18.3206C13.7612 18.6523 13.893 18.9705 14.1275 19.205L18.7619 23.8378V29.5706C18.7619 29.9022 18.8936 30.2201 19.128 30.4545C19.3625 30.6889 19.6804 30.8206 20.0119 30.8206C20.3434 30.8206 20.6614 30.6889 20.8958 30.4545C21.1302 30.2201 21.2619 29.9022 21.2619 29.5706V23.8378L25.8963 19.205C26.0125 19.0889 26.1047 18.9511 26.1676 18.7993C26.2305 18.6476 26.2629 18.4849 26.2629 18.3206C26.2629 18.1564 26.2305 17.9937 26.1676 17.842C26.1047 17.6902 26.0125 17.5524 25.8963 17.4363Z" fill="white"/>
</g>
<defs>
<clipPath id="clip0_214_10922">
<rect width="40" height="40" fill="white" transform="translate(0.0117188 0.820557)"/>
</clipPath>
</defs>
</svg>
