<svg width="41" height="41" viewBox="0 0 41 41" fill="none" xmlns="http://www.w3.org/2000/svg">
<g clip-path="url(#clip0_214_10895)">
<path d="M16.0512 30.5389C15.3465 32.0795 12.9949 35.6733 6.38713 35.6733C6.05561 35.6733 5.73767 35.5416 5.50325 35.3072C5.26883 35.0727 5.13713 34.7548 5.13713 34.4233C5.13713 27.8155 8.73088 25.4639 10.2715 24.7592C10.4209 24.6911 10.5822 24.6531 10.7463 24.6473C10.9104 24.6415 11.074 24.6681 11.2278 24.7256C11.3816 24.783 11.5225 24.8702 11.6427 24.9822C11.7628 25.0941 11.8596 25.2286 11.9278 25.378C11.9959 25.5273 12.0339 25.6887 12.0397 25.8528C12.0455 26.0168 12.0189 26.1804 11.9614 26.3342C11.9039 26.488 11.8168 26.629 11.7048 26.7491C11.5929 26.8692 11.4584 26.9661 11.309 27.0342C10.3043 27.492 8.08713 28.9655 7.69651 33.1139C11.8449 32.7233 13.3215 30.5061 13.7762 29.5014C13.8443 29.352 13.9412 29.2175 14.0613 29.1056C14.1814 28.9937 14.3224 28.9065 14.4762 28.849C14.63 28.7916 14.7936 28.765 14.9577 28.7707C15.1217 28.7765 15.2831 28.8145 15.4324 28.8827C15.5818 28.9508 15.7163 29.0477 15.8283 29.1678C15.9402 29.2879 16.0274 29.4288 16.0848 29.5826C16.1423 29.7364 16.1689 29.9 16.1631 30.0641C16.1574 30.2282 16.1193 30.3895 16.0512 30.5389ZM35.1137 8.03891C35.0767 7.42942 34.8178 6.85456 34.3861 6.42279C33.9543 5.99102 33.3794 5.7322 32.7699 5.69516C30.8043 5.57797 25.7809 5.75766 21.6137 9.92484L13.8871 17.6577C13.7711 17.7739 13.6333 17.8661 13.4816 17.9291C13.3299 17.9921 13.1673 18.0246 13.0031 18.0248C12.6714 18.0251 12.3531 17.8936 12.1184 17.6592C11.8836 17.4249 11.7516 17.1069 11.7513 16.7752C11.751 16.4435 11.8825 16.1252 12.1168 15.8905L16.2668 11.7389C16.3537 11.6515 16.4128 11.5404 16.4367 11.4195C16.4606 11.2986 16.4482 11.1733 16.4011 11.0595C16.3541 10.9456 16.2744 10.8482 16.1721 10.7794C16.0698 10.7107 15.9494 10.6738 15.8262 10.6733H11.7543C11.425 10.6715 11.0986 10.7353 10.7942 10.8608C10.4897 10.9864 10.2133 11.1712 9.98088 11.4045L4.62151 16.767C4.29283 17.0955 4.0622 17.509 3.95549 17.9613C3.84878 18.4135 3.87022 18.8865 4.0174 19.3273C4.16458 19.768 4.43168 20.159 4.78872 20.4564C5.14576 20.7538 5.57861 20.9457 6.03869 21.0108L12.0496 21.8498L18.9574 28.7577L19.7965 34.7717C19.861 35.2318 20.053 35.6647 20.3506 36.0215C20.6483 36.3782 21.0398 36.6446 21.4809 36.7905C21.7378 36.8763 22.0069 36.9201 22.2778 36.9202C22.6057 36.9208 22.9306 36.8565 23.2336 36.731C23.5367 36.6055 23.8119 36.4212 24.0434 36.1889L29.4059 30.8295C29.6385 30.5966 29.8229 30.3201 29.9484 30.0157C30.0739 29.7114 30.138 29.3853 30.1371 29.0561V24.9842C30.1369 24.8607 30.1001 24.74 30.0313 24.6373C29.9625 24.5347 29.8649 24.4547 29.7507 24.4076C29.6365 24.3604 29.5108 24.3482 29.3897 24.3724C29.2685 24.3966 29.1573 24.4562 29.0699 24.5436L24.9184 28.6936C24.797 28.8151 24.6518 28.9104 24.4919 28.9733C24.3321 29.0362 24.1609 29.0655 23.9892 29.0594C23.8175 29.0532 23.649 29.0117 23.494 28.9375C23.3391 28.8633 23.2011 28.7579 23.0887 28.628C22.8837 28.3799 22.7795 28.0638 22.7968 27.7425C22.8142 27.4211 22.9519 27.1181 23.1824 26.8936L30.8809 19.1952C35.0512 15.0264 35.2309 10.003 35.1137 8.03578V8.03891Z" fill="white"/>
</g>
<defs>
<clipPath id="clip0_214_10895">
<rect width="40" height="40" fill="white" transform="translate(0.138672 0.674072)"/>
</clipPath>
</defs>
</svg>
